  0
SECTION
  2
HEADER
  9
$ACADVER
  1
AC1024
  9
$ACADMAINTVER
 70
     6
  9
$DWGCODEPAGE
  3
ANSI_1252
  9
$INSBASE
 10
0.0
 20
0.0
 30
0.0
  9
$EXTMIN
 10
1.000000000000000E+20
 20
1.000000000000000E+20
 30
1.000000000000000E+20
  9
$EXTMAX
 10
-1.000000000000000E+20
 20
-1.000000000000000E+20
 30
-1.000000000000000E+20
  9
$LIMMIN
 10
0.0
 20
0.0
  9
$LIMMAX
 10
12.0
 20
9.0
  9
$ORTHOMODE
 70
     0
  9
$REGENMODE
 70
     1
  9
$FILLMODE
 70
     1
  9
$QTEXTMODE
 70
     0
  9
$MIRRTEXT
 70
     1
  9
$LTSCALE
 40
1.0
  9
$ATTMODE
 70
     1
  9
$TEXTSIZE
 40
0.2
  9
$TRACEWID
 40
0.05
  9
$TEXTSTYLE
  7
Standard
  9
$CLAYER
  8
0
  9
$CELTYPE
  6
ByLayer
  9
$CECOLOR
 62
   256
  9
$CELTSCALE
 40
1.0
  9
$DISPSILH
 70
     0
  9
$DIMSCALE
 40
1.0
  9
$DIMASZ
 40
0.18
  9
$DIMEXO
 40
0.0625
  9
$DIMDLI
 40
0.38
  9
$DIMRND
 40
0.0
  9
$DIMDLE
 40
0.0
  9
$DIMEXE
 40
0.18
  9
$DIMTP
 40
0.0
  9
$DIMTM
 40
0.0
  9
$DIMTXT
 40
0.18
  9
$DIMCEN
 40
0.09
  9
$DIMTSZ
 40
0.0
  9
$DIMTOL
 70
     0
  9
$DIMLIM
 70
     0
  9
$DIMTIH
 70
     1
  9
$DIMTOH
 70
     1
  9
$DIMSE1
 70
     0
  9
$DIMSE2
 70
     0
  9
$DIMTAD
 70
     0
  9
$DIMZIN
 70
     0
  9
$DIMBLK
  1

  9
$DIMASO
 70
     1
  9
$DIMSHO
 70
     1
  9
$DIMPOST
  1

  9
$DIMAPOST
  1

  9
$DIMALT
 70
     0
  9
$DIMALTD
 70
     2
  9
$DIMALTF
 40
25.4
  9
$DIMLFAC
 40
1.0
  9
$DIMTOFL
 70
     0
  9
$DIMTVP
 40
0.0
  9
$DIMTIX
 70
     0
  9
$DIMSOXD
 70
     0
  9
$DIMSAH
 70
     0
  9
$DIMBLK1
  1

  9
$DIMBLK2
  1

  9
$DIMSTYLE
  2
Standard
  9
$DIMCLRD
 70
     0
  9
$DIMCLRE
 70
     0
  9
$DIMCLRT
 70
     0
  9
$DIMTFAC
 40
1.0
  9
$DIMGAP
 40
0.09
  9
$DIMJUST
 70
     0
  9
$DIMSD1
 70
     0
  9
$DIMSD2
 70
     0
  9
$DIMTOLJ
 70
     1
  9
$DIMTZIN
 70
     0
  9
$DIMALTZ
 70
     0
  9
$DIMALTTZ
 70
     0
  9
$DIMUPT
 70
     0
  9
$DIMDEC
 70
     4
  9
$DIMTDEC
 70
     4
  9
$DIMALTU
 70
     2
  9
$DIMALTTD
 70
     2
  9
$DIMTXSTY
  7
Standard
  9
$DIMAUNIT
 70
     0
  9
$DIMADEC
 70
     0
  9
$DIMALTRND
 40
0.0
  9
$DIMAZIN
 70
     0
  9
$DIMDSEP
 70
    46
  9
$DIMATFIT
 70
     3
  9
$DIMFRAC
 70
     0
  9
$DIMLDRBLK
  1

  9
$DIMLUNIT
 70
     2
  9
$DIMLWD
 70
    -2
  9
$DIMLWE
 70
    -2
  9
$DIMTMOVE
 70
     0
  9
$DIMFXL
 40
1.0
  9
$DIMFXLON
 70
     0
  9
$DIMJOGANG
 40
0.7853981633974483
  9
$DIMTFILL
 70
     0
  9
$DIMTFILLCLR
 70
     0
  9
$DIMARCSYM
 70
     0
  9
$DIMLTYPE
  6

  9
$DIMLTEX1
  6

  9
$DIMLTEX2
  6

  9
$DIMTXTDIRECTION
 70
     0
  9
$LUNITS
 70
     2
  9
$LUPREC
 70
     4
  9
$SKETCHINC
 40
0.1
  9
$FILLETRAD
 40
0.5
  9
$AUNITS
 70
     0
  9
$AUPREC
 70
     0
  9
$MENU
  1
.
  9
$ELEVATION
 40
0.0
  9
$PELEVATION
 40
0.0
  9
$THICKNESS
 40
0.0
  9
$LIMCHECK
 70
     0
  9
$CHAMFERA
 40
0.5
  9
$CHAMFERB
 40
0.5
  9
$CHAMFERC
 40
1.0
  9
$CHAMFERD
 40
0.0
  9
$SKPOLY
 70
     0
  9
$TDCREATE
 40
2458938.659911273
  9
$TDUCREATE
 40
2458938.868244607
  9
$TDUPDATE
 40
2458938.65991162
  9
$TDUUPDATE
 40
2458938.868244954
  9
$TDINDWG
 40
0.0000000116
  9
$TDUSRTIMER
 40
0.0000000116
  9
$USRTIMER
 70
     1
  9
$ANGBASE
 50
0.0
  9
$ANGDIR
 70
     0
  9
$PDMODE
 70
     0
  9
$PDSIZE
 40
0.0
  9
$PLINEWID
 40
0.0
  9
$SPLFRAME
 70
     0
  9
$SPLINETYPE
 70
     6
  9
$SPLINESEGS
 70
     8
  9
$HANDSEED
  5
114
  9
$SURFTAB1
 70
     6
  9
$SURFTAB2
 70
     6
  9
$SURFTYPE
 70
     6
  9
$SURFU
 70
     6
  9
$SURFV
 70
     6
  9
$UCSBASE
  2

  9
$UCSNAME
  2

  9
$UCSORG
 10
0.0
 20
0.0
 30
0.0
  9
$UCSXDIR
 10
1.0
 20
0.0
 30
0.0
  9
$UCSYDIR
 10
0.0
 20
1.0
 30
0.0
  9
$UCSORTHOREF
  2

  9
$UCSORTHOVIEW
 70
     0
  9
$UCSORGTOP
 10
0.0
 20
0.0
 30
0.0
  9
$UCSORGBOTTOM
 10
0.0
 20
0.0
 30
0.0
  9
$UCSORGLEFT
 10
0.0
 20
0.0
 30
0.0
  9
$UCSORGRIGHT
 10
0.0
 20
0.0
 30
0.0
  9
$UCSORGFRONT
 10
0.0
 20
0.0
 30
0.0
  9
$UCSORGBACK
 10
0.0
 20
0.0
 30
0.0
  9
$PUCSBASE
  2

  9
$PUCSNAME
  2

  9
$PUCSORG
 10
0.0
 20
0.0
 30
0.0
  9
$PUCSXDIR
 10
1.0
 20
0.0
 30
0.0
  9
$PUCSYDIR
 10
0.0
 20
1.0
 30
0.0
  9
$PUCSORTHOREF
  2

  9
$PUCSORTHOVIEW
 70
     0
  9
$PUCSORGTOP
 10
0.0
 20
0.0
 30
0.0
  9
$PUCSORGBOTTOM
 10
0.0
 20
0.0
 30
0.0
  9
$PUCSORGLEFT
 10
0.0
 20
0.0
 30
0.0
  9
$PUCSORGRIGHT
 10
0.0
 20
0.0
 30
0.0
  9
$PUCSORGFRONT
 10
0.0
 20
0.0
 30
0.0
  9
$PUCSORGBACK
 10
0.0
 20
0.0
 30
0.0
  9
$USERI1
 70
     0
  9
$USERI2
 70
     0
  9
$USERI3
 70
     0
  9
$USERI4
 70
     0
  9
$USERI5
 70
     0
  9
$USERR1
 40
0.0
  9
$USERR2
 40
0.0
  9
$USERR3
 40
0.0
  9
$USERR4
 40
0.0
  9
$USERR5
 40
0.0
  9
$WORLDVIEW
 70
     1
  9
$SHADEDGE
 70
     3
  9
$SHADEDIF
 70
    70
  9
$TILEMODE
 70
     1
  9
$MAXACTVP
 70
    64
  9
$PINSBASE
 10
0.0
 20
0.0
 30
0.0
  9
$PLIMCHECK
 70
     0
  9
$PEXTMIN
 10
1.000000000000000E+20
 20
1.000000000000000E+20
 30
1.000000000000000E+20
  9
$PEXTMAX
 10
-1.000000000000000E+20
 20
-1.000000000000000E+20
 30
-1.000000000000000E+20
  9
$PLIMMIN
 10
0.0
 20
0.0
  9
$PLIMMAX
 10
12.0
 20
9.0
  9
$UNITMODE
 70
     0
  9
$VISRETAIN
 70
     1
  9
$PLINEGEN
 70
     0
  9
$PSLTSCALE
 70
     1
  9
$TREEDEPTH
 70
  3020
  9
$CMLSTYLE
  2
Standard
  9
$CMLJUST
 70
     0
  9
$CMLSCALE
 40
1.0
  9
$PROXYGRAPHICS
 70
     1
  9
$MEASUREMENT
 70
     0
  9
$CELWEIGHT
370
    -1
  9
$ENDCAPS
280
     0
  9
$JOINSTYLE
280
     0
  9
$LWDISPLAY
290
     1
  9
$INSUNITS
 70
     1
  9
$HYPERLINKBASE
  1

  9
$STYLESHEET
  1

  9
$XEDIT
290
     1
  9
$CEPSNTYPE
380
     0
  9
$PSTYLEMODE
290
     1
  9
$FINGERPRINTGUID
  2
{65585A0B-6F4A-4745-9923-6D0108495059}
  9
$VERSIONGUID
  2
{FAEB1C32-E019-11D5-929B-00C0DF256EC4}
  9
$EXTNAMES
290
     1
  9
$PSVPSCALE
 40
0.0
  9
$OLESTARTUP
290
     0
  9
$SORTENTS
280
   127
  9
$INDEXCTL
280
     0
  9
$HIDETEXT
280
     1
  9
$XCLIPFRAME
280
     2
  9
$HALOGAP
280
     0
  9
$OBSCOLOR
 70
   257
  9
$OBSLTYPE
280
     0
  9
$INTERSECTIONDISPLAY
280
     0
  9
$INTERSECTIONCOLOR
 70
   257
  9
$DIMASSOC
280
     2
  9
$PROJECTNAME
  1

  9
$CAMERADISPLAY
290
     0
  9
$LENSLENGTH
 40
50.0
  9
$CAMERAHEIGHT
 40
0.0
  9
$STEPSPERSEC
 40
2.0
  9
$STEPSIZE
 40
6.0
  9
$3DDWFPREC
 40
2.0
  9
$PSOLWIDTH
 40
0.25
  9
$PSOLHEIGHT
 40
4.0
  9
$LOFTANG1
 40
1.570796326794897
  9
$LOFTANG2
 40
1.570796326794897
  9
$LOFTMAG1
 40
0.0
  9
$LOFTMAG2
 40
0.0
  9
$LOFTPARAM
 70
     7
  9
$LOFTNORMALS
280
     1
  9
$LATITUDE
 40
37.795
  9
$LONGITUDE
 40
-122.394
  9
$NORTHDIRECTION
 40
0.0
  9
$TIMEZONE
 70
 -8000
  9
$LIGHTGLYPHDISPLAY
280
     1
  9
$TILEMODELIGHTSYNCH
280
     1
  9
$CMATERIAL
347
3C
  9
$SOLIDHIST
280
     1
  9
$SHOWHIST
280
     1
  9
$DWFFRAME
280
     2
  9
$DGNFRAME
280
     2
  9
$REALWORLDSCALE
290
     1
  9
$INTERFERECOLOR
 62
   256
  9
$CSHADOW
280
     0
  9
$SHADOWPLANELOCATION
 40
0.0
  0
ENDSEC
  0
SECTION
  2
CLASSES
  0
CLASS
  1
ACDBDICTIONARYWDFLT
  2
AcDbDictionaryWithDefault
  3
ObjectDBX Classes
 90
        0
 91
        4
280
     0
281
     0
  0
CLASS
  1
VISUALSTYLE
  2
AcDbVisualStyle
  3
ObjectDBX Classes
 90
     4095
 91
        4
280
     0
281
     0
  0
CLASS
  1
MATERIAL
  2
AcDbMaterial
  3
ObjectDBX Classes
 90
     1153
 91
        4
280
     0
281
     0
  0
CLASS
  1
SUN
  2
AcDbSun
  3
SCENEOE
 90
     1024
 91
        4
280
     0
281
     0
  0
ENDSEC
  0
SECTION
  2
TABLES
  0
TABLE
  2
VPORT
  5
8
330
0
100
AcDbSymbolTable
 70
     1
  0
VPORT
  5
29
330
8
100
AcDbSymbolTableRecord
100
AcDbViewportTableRecord
  2
*Active
 70
     0
 10
0.0
 20
0.0
 11
1.0
 21
1.0
 12
0.0
 22
0.0
 13
0.0
 23
0.0
 14
0.5
 24
0.5
 15
0.5
 25
0.5
 16
0.0
 26
0.0
 36
1.0
 17
500.0007637638886
 27
-500.0007637638886
 37
0.0
 40
1000.001527527777
 41
1.0
 42
50.0
 43
0.0
 44
0.0
 50
0.0
 51
0.0
 71
     0
 72
   100
 73
     1
 74
     3
 75
     0
 76
     0
 77
     0
 78
     0
281
     0
 65
     1
110
0.0
120
0.0
130
0.0
111
1.0
121
0.0
131
0.0
112
0.0
122
1.0
132
0.0
 79
     0
146
0.0
 60
     3
 61
     5
292
     1
282
     1
141
0.0
142
0.0
 63
   250
361
3F
  0
ENDTAB
  0
TABLE
  2
LTYPE
  5
5
330
0
100
AcDbSymbolTable
 70
     5
  0
LTYPE
  5
14
330
5
100
AcDbSymbolTableRecord
100
AcDbLinetypeTableRecord
  2
ByBlock
 70
     0
  3

 72
    65
 73
     0
 40
0.0
  0
LTYPE
  5
15
330
5
100
AcDbSymbolTableRecord
100
AcDbLinetypeTableRecord
  2
ByLayer
 70
     0
  3

 72
    65
 73
     0
 40
0.0
  0
LTYPE
  5
16
330
5
100
AcDbSymbolTableRecord
100
AcDbLinetypeTableRecord
  2
Continuous
 70
     0
  3
Solid line
 72
    65
 73
     0
 40
0.0
  0
LTYPE
  5
73
330
5
100
AcDbSymbolTableRecord
100
AcDbLinetypeTableRecord
  2
AI-Linetype-1
 70
     0
  3
Adobe Illustrator Linetype No. 1
 72
    65
 73
     2
 40
8.46666666455
 49
4.233333332275
 74
     0
 49
-4.233333332275
 74
     0
  0
LTYPE
  5
81
330
5
100
AcDbSymbolTableRecord
100
AcDbLinetypeTableRecord
  2
AI-Linetype-2
 70
     0
  3
Adobe Illustrator Linetype No. 2
 72
    65
 73
     2
 40
8.46666666455
 49
4.233333332275
 74
     0
 49
-4.233333332275
 74
     0
  0
LTYPE
  5
A4
330
5
100
AcDbSymbolTableRecord
100
AcDbLinetypeTableRecord
  2
AI-Linetype-3
 70
     0
  3
Adobe Illustrator Linetype No. 3
 72
    65
 73
     2
 40
8.46666666455
 49
4.233333332275
 74
     0
 49
-4.233333332275
 74
     0
  0
LTYPE
  5
B2
330
5
100
AcDbSymbolTableRecord
100
AcDbLinetypeTableRecord
  2
AI-Linetype-4
 70
     0
  3
Adobe Illustrator Linetype No. 4
 72
    65
 73
     2
 40
8.46666666455
 49
4.233333332275
 74
     0
 49
-4.233333332275
 74
     0
  0
ENDTAB
  0
TABLE
  2
LAYER
  5
2
330
0
100
AcDbSymbolTable
 70
     2
  0
LAYER
  5
10
330
2
100
AcDbSymbolTableRecord
100
AcDbLayerTableRecord
  2
0
 70
     0
 62
     7
  6
Continuous
370
    -3
390
F
347
3E
  0
LAYER
  5
40
330
2
100
AcDbSymbolTableRecord
100
AcDbLayerTableRecord
  2
Layer 1
 70
     0
 62
     7
  6
Continuous
370
    -3
390
F
347
3E
  0
ENDTAB
  0
TABLE
  2
STYLE
  5
3
330
0
100
AcDbSymbolTable
 70
     1
  0
STYLE
  5
11
330
3
100
AcDbSymbolTableRecord
100
AcDbTextStyleTableRecord
  2
Standard
 70
     0
 40
0.0
 41
1.0
 50
0.0
 71
     0
 42
0.2
  3
txt
  4

  0
ENDTAB
  0
TABLE
  2
VIEW
  5
6
330
0
100
AcDbSymbolTable
 70
     0
  0
ENDTAB
  0
TABLE
  2
UCS
  5
7
330
0
100
AcDbSymbolTable
 70
     0
  0
ENDTAB
  0
TABLE
  2
APPID
  5
9
330
0
100
AcDbSymbolTable
 70
     1
  0
APPID
  5
12
330
9
100
AcDbSymbolTableRecord
100
AcDbRegAppTableRecord
  2
ACAD
 70
     0
  0
ENDTAB
  0
TABLE
  2
DIMSTYLE
  5
A
330
0
100
AcDbSymbolTable
 70
     1
100
AcDbDimStyleTable
  0
DIMSTYLE
105
27
330
A
100
AcDbSymbolTableRecord
100
AcDbDimStyleTableRecord
  2
Standard
 70
     0
178
     0
340
11
  0
ENDTAB
  0
TABLE
  2
BLOCK_RECORD
  5
1
330
0
100
AcDbSymbolTable
 70
     1
  0
BLOCK_RECORD
  5
1F
330
1
100
AcDbSymbolTableRecord
100
AcDbBlockTableRecord
  2
*Model_Space
340
22
 70
     0
280
     1
281
     0
  0
BLOCK_RECORD
  5
1B
330
1
100
AcDbSymbolTableRecord
100
AcDbBlockTableRecord
  2
*Paper_Space
340
1E
 70
     0
280
     1
281
     0
  0
BLOCK_RECORD
  5
23
330
1
100
AcDbSymbolTableRecord
100
AcDbBlockTableRecord
  2
*Paper_Space0
340
26
 70
     0
280
     1
281
     0
  0
ENDTAB
  0
ENDSEC
  0
SECTION
  2
BLOCKS
  0
BLOCK
  5
20
330
1F
100
AcDbEntity
  8
0
100
AcDbBlockBegin
  2
*Model_Space
 70
     0
 10
0.0
 20
0.0
 30
0.0
  3
*Model_Space
  1

  0
ENDBLK
  5
21
330
1F
100
AcDbEntity
  8
0
100
AcDbBlockEnd
  0
BLOCK
  5
1C
330
1B
100
AcDbEntity
 67
     1
  8
0
100
AcDbBlockBegin
  2
*Paper_Space
 70
     0
 10
0.0
 20
0.0
 30
0.0
  3
*Paper_Space
  1

  0
ENDBLK
  5
1D
330
1B
100
AcDbEntity
 67
     1
  8
0
100
AcDbBlockEnd
  0
BLOCK
  5
24
330
23
100
AcDbEntity
  8
0
100
AcDbBlockBegin
  2
*Paper_Space0
 70
     0
 10
0.0
 20
0.0
 30
0.0
  3
*Paper_Space0
  1

  0
ENDBLK
  5
25
330
23
100
AcDbEntity
  8
0
100
AcDbBlockEnd
  0
ENDSEC
  0
SECTION
  2
ENTITIES
  0
MTEXT
  5
41
330
1F
100
AcDbEntity
  8
Layer 1
 62
   250
420
  2301728
100
AcDbMText
 10
42.67174935863545
 20
-310.3559915402495
 30
0.0
 40
9.178924997705268
 41
0.0
 46
0.0
 71
     7
 72
     1
  1
\fMyriad Pro|b0|i0|c0|p34;\W1;Lens Section
 73
     1
 44
1.0
  0
POLYLINE
  5
42
330
1F
100
AcDbEntity
  8
Layer 1
 62
   230
420
 15466635
370
    35
100
AcDb2dPolyline
 66
     1
 10
0.0
 20
0.0
 30
0.0
  0
VERTEX
  5
43
330
42
100
AcDbEntity
  8
Layer 1
 62
   230
420
 15466635
370
    35
100
AcDbVertex
100
AcDb2dVertex
 10
115.4330069641754
 20
-306.3957099676284
 30
0.0
  0
VERTEX
  5
44
330
42
100
AcDbEntity
  8
Layer 1
 62
   230
420
 15466635
370
    35
100
AcDbVertex
100
AcDb2dVertex
 10
174.327883310226
 20
-330.38459885052
 30
0.0
  0
SEQEND
  5
45
330
42
100
AcDbEntity
  8
Layer 1
 62
   230
420
 15466635
370
    35
  0
MTEXT
  5
46
330
1F
100
AcDbEntity
  8
Layer 1
 62
   250
420
  2301728
100
AcDbMText
 10
85.70863577501382
 20
-134.449803636635
 30
0.0
 40
9.178924997705268
 41
0.0
 46
0.0
 71
     7
 72
     1
  1
\fMyriad Pro|b0|i0|c0|p34;\W1;Crown Section
 73
     1
 44
1.0
  0
POLYLINE
  5
47
330
1F
100
AcDbEntity
  8
Layer 1
 62
   230
420
 15466635
370
    35
100
AcDb2dPolyline
 66
     1
 10
0.0
 20
0.0
 30
0.0
  0
VERTEX
  5
48
330
47
100
AcDbEntity
  8
Layer 1
 62
   230
420
 15466635
370
    35
100
AcDbVertex
100
AcDb2dVertex
 10
165.8782419168159
 20
-132.9590196105347
 30
0.0
  0
VERTEX
  5
49
330
47
100
AcDbEntity
  8
Layer 1
 62
   230
420
 15466635
370
    35
100
AcDbVertex
100
AcDb2dVertex
 10
227.8525746807852
 20
-155.0020899948695
 30
0.0
  0
SEQEND
  5
4A
330
47
100
AcDbEntity
  8
Layer 1
 62
   230
420
 15466635
370
    35
  0
MTEXT
  5
4B
330
1F
100
AcDbEntity
  8
Layer 1
 62
   250
420
  2301728
100
AcDbMText
 10
47.96337296028563
 20
-213.3451171341637
 30
0.0
 40
9.178924997705268
 41
0.0
 46
0.0
 71
     7
 72
     1
  1
\fMyriad Pro|b0|i0|c0|p34;\W1;Headband
 73
     1
 44
1.0
  0
MTEXT
  5
4C
330
1F
100
AcDbEntity
  8
Layer 1
 62
   250
420
  2301728
100
AcDbMText
 10
47.96337296028563
 20
-228.9024793264549
 30
0.0
 40
9.178924997705268
 41
0.0
 46
0.0
 71
     7
 72
     1
  1
\fMyriad Pro|b0|i0|c0|p34;\W1;Attachment
 73
     1
 44
1.0
  0
MTEXT
  5
4D
330
1F
100
AcDbEntity
  8
Layer 1
 62
   250
420
  2301728
100
AcDbMText
 10
47.96337296028563
 20
-244.4601860282947
 30
0.0
 40
9.178924997705268
 41
0.0
 46
0.0
 71
     7
 72
     1
  1
\fMyriad Pro|b0|i0|c0|p34;\W1;Slots
 73
     1
 44
1.0
  0
POLYLINE
  5
4E
330
1F
100
AcDbEntity
  8
Layer 1
 62
   230
420
 15466635
370
    35
100
AcDb2dPolyline
 66
     1
 10
0.0
 20
0.0
 30
0.0
  0
VERTEX
  5
4F
330
4E
100
AcDbEntity
  8
Layer 1
 62
   230
420
 15466635
370
    35
100
AcDbVertex
100
AcDb2dVertex
 10
117.9024056528287
 20
-228.4201593285696
 30
0.0
  0
VERTEX
  5
50
330
4E
100
AcDbEntity
  8
Layer 1
 62
   230
420
 15466635
370
    35
100
AcDbVertex
100
AcDb2dVertex
 10
174.7049699876702
 20
-242.8840482138425
 30
0.0
  0
SEQEND
  5
51
330
4E
100
AcDbEntity
  8
Layer 1
 62
   230
420
 15466635
370
    35
  0
POLYLINE
  5
52
330
1F
100
AcDbEntity
  8
Layer 1
 62
   230
420
 15466635
370
    35
100
AcDb2dPolyline
 66
     1
 10
0.0
 20
0.0
 30
0.0
  0
VERTEX
  5
53
330
52
100
AcDbEntity
  8
Layer 1
 62
   230
420
 15466635
370
    35
100
AcDbVertex
100
AcDb2dVertex
 10
117.9024056528287
 20
-228.4201593285696
 30
0.0
  0
VERTEX
  5
54
330
52
100
AcDbEntity
  8
Layer 1
 62
   230
420
 15466635
370
    35
100
AcDbVertex
100
AcDb2dVertex
 10
158.8714933180193
 20
-248.8812704345654
 30
0.0
  0
SEQEND
  5
55
330
52
100
AcDbEntity
  8
Layer 1
 62
   230
420
 15466635
370
    35
  0
MTEXT
  5
56
330
1F
100
AcDbEntity
  8
Layer 1
 62
   250
420
  2301728
100
AcDbMText
 10
396.0606977532255
 20
-131.3021921465364
 30
0.0
 40
9.178924997705268
 41
0.0
 46
0.0
 71
     7
 72
     1
  1
\fMyriad Pro|b0|i0|c0|p34;\W1;Assembly Slots
 73
     1
 44
1.0
  0
POLYLINE
  5
57
330
1F
100
AcDbEntity
  8
Layer 1
 62
   230
420
 15466635
370
    35
100
AcDb2dPolyline
 66
     1
 10
0.0
 20
0.0
 30
0.0
  0
VERTEX
  5
58
330
57
100
AcDbEntity
  8
Layer 1
 62
   230
420
 15466635
370
    35
100
AcDbVertex
100
AcDb2dVertex
 10
358.5388600350606
 20
-138.8908312450887
 30
0.0
  0
VERTEX
  5
59
330
57
100
AcDbEntity
  8
Layer 1
 62
   230
420
 15466635
370
    35
100
AcDbVertex
100
AcDb2dVertex
 10
394.694135002845
 20
-131.3021621400765
 30
0.0
  0
SEQEND
  5
5A
330
57
100
AcDbEntity
  8
Layer 1
 62
   230
420
 15466635
370
    35
  0
POLYLINE
  5
5B
330
1F
100
AcDbEntity
  8
Layer 1
 62
   230
420
 15466635
370
    35
100
AcDb2dPolyline
 66
     1
 10
0.0
 20
0.0
 30
0.0
  0
VERTEX
  5
5C
330
5B
100
AcDbEntity
  8
Layer 1
 62
   230
420
 15466635
370
    35
100
AcDbVertex
100
AcDb2dVertex
 10
335.0012097185307
 20
-186.2906008285074
 30
0.0
  0
VERTEX
  5
5D
330
5B
100
AcDbEntity
  8
Layer 1
 62
   230
420
 15466635
370
    35
100
AcDbVertex
100
AcDb2dVertex
 10
394.694135002845
 20
-131.3021621400769
 30
0.0
  0
SEQEND
  5
5E
330
5B
100
AcDbEntity
  8
Layer 1
 62
   230
420
 15466635
370
    35
  0
MTEXT
  5
5F
330
1F
100
AcDbEntity
  8
Layer 1
 62
   250
420
  2301728
100
AcDbMText
 10
400.3410781707209
 20
-169.3451758067306
 30
0.0
 40
9.178924997705268
 41
0.0
 46
0.0
 71
     7
 72
     1
  1
\fMyriad Pro|b0|i0|c0|p34;\W1;Assembly Tabs
 73
     1
 44
1.0
  0
POLYLINE
  5
60
330
1F
100
AcDbEntity
  8
Layer 1
 62
   230
420
 15466635
370
    35
100
AcDb2dPolyline
 66
     1
 10
0.0
 20
0.0
 30
0.0
  0
VERTEX
  5
61
330
60
100
AcDbEntity
  8
Layer 1
 62
   230
420
 15466635
370
    35
100
AcDbVertex
100
AcDb2dVertex
 10
354.6667548112989
 20
-201.280531206546
 30
0.0
  0
VERTEX
  5
62
330
60
100
AcDbEntity
  8
Layer 1
 62
   230
420
 15466635
370
    35
100
AcDbVertex
100
AcDb2dVertex
 10
398.9745067388618
 20
-169.3452233475375
 30
0.0
  0
SEQEND
  5
63
330
60
100
AcDbEntity
  8
Layer 1
 62
   230
420
 15466635
370
    35
  0
POLYLINE
  5
64
330
1F
100
AcDbEntity
  8
Layer 1
 62
   230
420
 15466635
370
    35
100
AcDb2dPolyline
 66
     1
 10
0.0
 20
0.0
 30
0.0
  0
VERTEX
  5
65
330
64
100
AcDbEntity
  8
Layer 1
 62
   230
420
 15466635
370
    35
100
AcDbVertex
100
AcDb2dVertex
 10
406.3581301917147
 20
-192.3717842111133
 30
0.0
  0
VERTEX
  5
66
330
64
100
AcDbEntity
  8
Layer 1
 62
   230
420
 15466635
370
    35
100
AcDbVertex
100
AcDb2dVertex
 10
398.9745067388618
 20
-169.3452233475375
 30
0.0
  0
SEQEND
  5
67
330
64
100
AcDbEntity
  8
Layer 1
 62
   230
420
 15466635
370
    35
  0
POLYLINE
  5
68
330
1F
100
AcDbEntity
  8
Layer 1
 62
   114
420
    37700
370
    35
100
AcDb2dPolyline
 66
     1
 10
0.0
 20
0.0
 30
0.0
  0
VERTEX
  5
69
330
68
100
AcDbEntity
  8
Layer 1
 62
   114
420
    37700
370
    35
100
AcDbVertex
100
AcDb2dVertex
 10
545.1887526238474
 20
-106.1670097511555
 30
0.0
  0
VERTEX
  5
6A
330
68
100
AcDbEntity
  8
Layer 1
 62
   114
420
    37700
370
    35
100
AcDbVertex
100
AcDb2dVertex
 10
545.1887526238474
 20
-81.4725653128847
 30
0.0
  0
SEQEND
  5
6B
330
68
100
AcDbEntity
  8
Layer 1
 62
   114
420
    37700
370
    35
  0
POLYLINE
  5
6C
330
1F
100
AcDbEntity
  8
Layer 1
 62
   114
420
    37700
370
    35
100
AcDb2dPolyline
 66
     1
 10
0.0
 20
0.0
 30
0.0
  0
VERTEX
  5
6D
330
6C
100
AcDbEntity
  8
Layer 1
 62
   114
420
    37700
370
    35
100
AcDbVertex
100
AcDb2dVertex
 10
851.2907257419836
 20
-106.1670097511555
 30
0.0
  0
VERTEX
  5
6E
330
6C
100
AcDbEntity
  8
Layer 1
 62
   114
420
    37700
370
    35
100
AcDbVertex
100
AcDb2dVertex
 10
851.2907257419836
 20
-81.4725653128847
 30
0.0
  0
SEQEND
  5
6F
330
6C
100
AcDbEntity
  8
Layer 1
 62
   114
420
    37700
370
    35
  0
POLYLINE
  5
70
330
1F
100
AcDbEntity
  8
Layer 1
  6
AI-Linetype-1
 62
   114
420
    37700
370
    35
100
AcDb2dPolyline
 66
     1
 10
0.0
 20
0.0
 30
0.0
  0
VERTEX
  5
71
330
70
100
AcDbEntity
  8
Layer 1
  6
AI-Linetype-1
 62
   114
420
    37700
370
    35
100
AcDbVertex
100
AcDb2dVertex
 10
545.1887526238474
 20
-93.81978753202011
 30
0.0
  0
VERTEX
  5
72
330
70
100
AcDbEntity
  8
Layer 1
  6
AI-Linetype-1
 62
   114
420
    37700
370
    35
100
AcDbVertex
100
AcDb2dVertex
 10
851.2907257419836
 20
-93.81978753202011
 30
0.0
  0
SEQEND
  5
74
330
70
100
AcDbEntity
  8
Layer 1
  6
AI-Linetype-1
 62
   114
420
    37700
370
    35
  0
MTEXT
  5
75
330
1F
100
AcDbEntity
  8
Layer 1
 62
   114
420
    37700
100
AcDbMText
 10
675.8893644550511
 20
-88.91948629911344
 30
0.0
 40
8.239450220336987
 41
0.0
 46
0.0
 71
     7
 72
     1
  1
\fMyriad Pro|b0|i0|c0|p34;\W1;303.0mm
 73
     1
 44
1.0
  0
POLYLINE
  5
76
330
1F
100
AcDbEntity
  8
Layer 1
 62
   114
420
    37700
370
    35
100
AcDb2dPolyline
 66
     1
 10
0.0
 20
0.0
 30
0.0
  0
VERTEX
  5
77
330
76
100
AcDbEntity
  8
Layer 1
 62
   114
420
    37700
370
    35
100
AcDbVertex
100
AcDb2dVertex
 10
512.3000479966905
 20
-120.2033879367113
 30
0.0
  0
VERTEX
  5
78
330
76
100
AcDbEntity
  8
Layer 1
 62
   114
420
    37700
370
    35
100
AcDbVertex
100
AcDb2dVertex
 10
536.9944924349614
 20
-120.2033879356027
 30
0.0
  0
SEQEND
  5
79
330
76
100
AcDbEntity
  8
Layer 1
 62
   114
420
    37700
370
    35
  0
POLYLINE
  5
7A
330
1F
100
AcDbEntity
  8
Layer 1
 62
   114
420
    37700
370
    35
100
AcDb2dPolyline
 66
     1
 10
0.0
 20
0.0
 30
0.0
  0
VERTEX
  5
7B
330
7A
100
AcDbEntity
  8
Layer 1
 62
   114
420
    37700
370
    35
100
AcDbVertex
100
AcDb2dVertex
 10
512.3000480104345
 20
-454.50501575798
 30
0.0
  0
VERTEX
  5
7C
330
7A
100
AcDbEntity
  8
Layer 1
 62
   114
420
    37700
370
    35
100
AcDbVertex
100
AcDb2dVertex
 10
536.9944924487053
 20
-454.5050157568689
 30
0.0
  0
SEQEND
  5
7D
330
7A
100
AcDbEntity
  8
Layer 1
 62
   114
420
    37700
370
    35
  0
POLYLINE
  5
7E
330
1F
100
AcDbEntity
  8
Layer 1
  6
AI-Linetype-2
 62
   114
420
    37700
370
    35
100
AcDb2dPolyline
 66
     1
 10
0.0
 20
0.0
 30
0.0
  0
VERTEX
  5
7F
330
7E
100
AcDbEntity
  8
Layer 1
  6
AI-Linetype-2
 62
   114
420
    37700
370
    35
100
AcDbVertex
100
AcDb2dVertex
 10
524.6472702614008
 20
-120.2033878619524
 30
0.0
  0
VERTEX
  5
80
330
7E
100
AcDbEntity
  8
Layer 1
  6
AI-Linetype-2
 62
   114
420
    37700
370
    35
100
AcDbVertex
100
AcDb2dVertex
 10
524.6472702751414
 20
-454.5050156552334
 30
0.0
  0
SEQEND
  5
82
330
7E
100
AcDbEntity
  8
Layer 1
  6
AI-Linetype-2
 62
   114
420
    37700
370
    35
  0
MTEXT
  5
83
330
1F
100
AcDbEntity
  8
Layer 1
 62
   114
420
    37700
100
AcDbMText
 10
511.9473902799993
 20
-256.3453994110113
 30
0.0
 40
8.239450220336987
 41
0.0
 46
0.0
 71
     7
 72
     1
  1
\fMyriad Pro|b0|i0|c0|p34;\W1;334.3mm
 11
-1.836970198721030E-16
 21
-1.0
 31
0.0
 73
     1
 44
1.0
  0
SPLINE
  5
84
330
1F
100
AcDbEntity
  8
Layer 1
 62
   250
420
  2301728
370
    35
100
AcDbSpline
210
0.0
220
0.0
230
1.0
 70
     8
 71
     3
 72
    38
 73
    34
 74
     0
 42
0.0000000001
 43
0.0000000001
 12
1.0
 22
0.0
 32
0.0
 13
1.0
 23
0.0
 33
0.0
 40
0.0
 40
0.0
 40
0.0
 40
0.0
 40
1.0
 40
1.0
 40
1.0
 40
2.0
 40
2.0
 40
2.0
 40
3.0
 40
3.0
 40
3.0
 40
4.0
 40
4.0
 40
4.0
 40
5.0
 40
5.0
 40
5.0
 40
6.0
 40
6.0
 40
6.0
 40
7.0
 40
7.0
 40
7.0
 40
8.0
 40
8.0
 40
8.0
 40
9.0
 40
9.0
 40
9.0
 40
10.0
 40
10.0
 40
10.0
 40
11.0
 40
11.0
 40
11.0
 40
11.0
 10
375.2736334264911
 20
-533.5398365640635
 30
0.0
 10
375.2736334264911
 20
-533.5398365640635
 30
0.0
 10
370.2484021624298
 20
-533.6443910503069
 30
0.0
 10
370.2484021624298
 20
-533.6443910503069
 30
0.0
 10
370.2484021624298
 20
-533.6443910503069
 30
0.0
 10
370.2484021627365
 20
-531.8814494758072
 30
0.0
 10
370.2484021627365
 20
-531.8814494758072
 30
0.0
 10
370.2484021627753
 20
-531.6677887702026
 30
0.0
 10
369.3277892763683
 20
-531.874625770243
 30
0.0
 10
369.1302617181602
 20
-531.9560736730211
 30
0.0
 10
368.0268403373817
 20
-532.4110550344268
 30
0.0
 10
369.1302617181602
 20
-531.9560736730211
 30
0.0
 10
363.8293980236232
 20
-538.249705501753
 30
0.0
 10
363.4715085953936
 20
-538.6746219731971
 30
0.0
 10
363.192846608137
 20
-539.1573985474627
 30
0.0
 10
363.1928466080311
 20
-539.7129512907237
 30
0.0
 10
363.1928466080311
 20
-539.7129512907237
 30
0.0
 10
363.19284660746
 20
-541.2431626780467
 30
0.0
 10
363.19284660746
 20
-541.2431626780467
 30
0.0
 10
363.1928466073541
 20
-541.7987062817205
 30
0.0
 10
363.471500371378
 20
-542.2814757845557
 30
0.0
 10
363.8293782387481
 20
-542.7063900437122
 30
0.0
 10
369.1302551176
 20
-549.0002080672612
 30
0.0
 10
368.0268226554008
 20
-548.5451907580608
 30
0.0
 10
369.1302551176
 20
-549.0002080672612
 30
0.0
 10
369.3277835578724
 20
-549.081661950906
 30
0.0
 10
370.248402160299
 20
-549.2884987333777
 30
0.0
 10
370.2484021603343
 20
-549.0748349323355
 30
0.0
 10
370.2484021603343
 20
-549.0748349323355
 30
0.0
 10
370.2484021606446
 20
-547.3117072924425
 30
0.0
 10
370.2484021606446
 20
-547.3117072924425
 30
0.0
 10
370.2484021606446
 20
-547.3117072924425
 30
0.0
 10
375.2736334245753
 20
-547.4162617812827
 30
0.0
 10
375.2736334245753
 20
-547.4162617812827
 30
0.0
  0
SPLINE
  5
85
330
1F
100
AcDbEntity
  8
Layer 1
 62
   250
420
  2301728
370
    35
100
AcDbSpline
210
0.0
220
0.0
230
1.0
 70
     8
 71
     3
 72
    38
 73
    34
 74
     0
 42
0.0000000001
 43
0.0000000001
 12
1.0
 22
0.0
 32
0.0
 13
1.0
 23
0.0
 33
0.0
 40
0.0
 40
0.0
 40
0.0
 40
0.0
 40
1.0
 40
1.0
 40
1.0
 40
2.0
 40
2.0
 40
2.0
 40
3.0
 40
3.0
 40
3.0
 40
4.0
 40
4.0
 40
4.0
 40
5.0
 40
5.0
 40
5.0
 40
6.0
 40
6.0
 40
6.0
 40
7.0
 40
7.0
 40
7.0
 40
8.0
 40
8.0
 40
8.0
 40
9.0
 40
9.0
 40
9.0
 40
10.0
 40
10.0
 40
10.0
 40
11.0
 40
11.0
 40
11.0
 40
11.0
 10
581.8356560674792
 20
-533.5398365983707
 30
0.0
 10
581.8356560674792
 20
-533.5398365983707
 30
0.0
 10
586.8608873313959
 20
-533.6443910883687
 30
0.0
 10
586.8608873313959
 20
-533.6443910883687
 30
0.0
 10
586.8608873313959
 20
-533.6443910883687
 30
0.0
 10
586.8608873319112
 20
-531.8814495138645
 30
0.0
 10
586.8608873319112
 20
-531.8814495138645
 30
0.0
 10
586.8608873319677
 20
-531.6677888082643
 30
0.0
 10
587.7815002184274
 20
-531.8746258083888
 30
0.0
 10
587.9790277766036
 20
-531.9560737112478
 30
0.0
 10
589.0824491571464
 20
-532.4110550730769
 30
0.0
 10
591.6393503647636
 20
-536.7247208760768
 30
0.0
 10
593.2798914690705
 20
-538.249705542834
 30
0.0
 10
593.6867958648111
 20
-538.6279484059429
 30
0.0
 10
593.9164428843803
 20
-539.157398589161
 30
0.0
 10
593.9164428841192
 20
-539.7129513326196
 30
0.0
 10
593.9164428841192
 20
-539.7129513326196
 30
0.0
 10
593.9164428827465
 20
-541.2431627199497
 30
0.0
 10
593.9164428827465
 20
-541.2431627199497
 30
0.0
 10
593.9164428824854
 20
-541.7987063234258
 30
0.0
 10
593.686803928697
 20
-542.3281480404255
 30
0.0
 10
593.2799112509149
 20
-542.7063900847969
 30
0.0
 10
591.6393875950291
 20
-544.2313991482079
 30
0.0
 10
589.0824668324211
 20
-548.5451907967109
 30
0.0
 10
587.9790343699926
 20
-549.0002081054878
 30
0.0
 10
587.7815059296848
 20
-549.0816619890523
 30
0.0
 10
586.8608873273147
 20
-549.2884987714388
 30
0.0
 10
586.8608873273712
 20
-549.0748349703935
 30
0.0
 10
586.8608873273712
 20
-549.0748349703935
 30
0.0
 10
586.8608873278858
 20
-547.3117073305036
 30
0.0
 10
586.8608873278858
 20
-547.3117073305036
 30
0.0
 10
586.8608873278858
 20
-547.3117073305036
 30
0.0
 10
581.8356560637998
 20
-547.4162618155867
 30
0.0
 10
581.8356560637998
 20
-547.4162618155867
 30
0.0
  0
SPLINE
  5
86
330
1F
100
AcDbEntity
  8
Layer 1
 62
   250
420
  2301728
370
    35
100
AcDbSpline
210
0.0
220
0.0
230
1.0
 70
     8
 71
     3
 72
    32
 73
    28
 74
     0
 42
0.0000000001
 43
0.0000000001
 12
1.0
 22
0.0
 32
0.0
 13
1.0
 23
0.0
 33
0.0
 40
0.0
 40
0.0
 40
0.0
 40
0.0
 40
1.0
 40
1.0
 40
1.0
 40
2.0
 40
2.0
 40
2.0
 40
3.0
 40
3.0
 40
3.0
 40
4.0
 40
4.0
 40
4.0
 40
5.0
 40
5.0
 40
5.0
 40
6.0
 40
6.0
 40
6.0
 40
7.0
 40
7.0
 40
7.0
 40
8.0
 40
8.0
 40
8.0
 40
9.0
 40
9.0
 40
9.0
 40
9.0
 10
151.787665689745
 20
-542.7154202248704
 30
0.0
 10
151.7876656898291
 20
-541.777659107941
 30
0.0
 10
152.5478712780404
 20
-541.0174535198682
 30
0.0
 10
153.4856323949741
 20
-541.0174535199523
 30
0.0
 10
153.4856323949741
 20
-541.0174535199523
 30
0.0
 10
154.9684043931731
 20
-541.0174535200794
 30
0.0
 10
154.9684043931731
 20
-541.0174535200794
 30
0.0
 10
156.6062223378392
 20
-541.0174535202276
 30
0.0
 10
157.9339361146028
 20
-542.3451672957385
 30
0.0
 10
157.9339361162994
 20
-543.9829852403989
 30
0.0
 10
157.9339361162994
 20
-543.9829852403989
 30
0.0
 10
157.9339361221681
 20
-551.1017152235148
 30
0.0
 10
157.9339361221681
 20
-551.1017152235148
 30
0.0
 10
157.9339361238651
 20
-552.7395331689484
 30
0.0
 10
156.606222347277
 20
-553.3616913914115
 30
0.0
 10
154.9684044018476
 20
-553.3616913912632
 30
0.0
 10
154.9684044018476
 20
-553.3616913912632
 30
0.0
 10
154.8390056217877
 20
-553.3616913912523
 30
0.0
 10
154.8390056217877
 20
-553.3616913912523
 30
0.0
 10
154.8390056217877
 20
-553.3616913912523
 30
0.0
 10
154.9684044018476
 20
-553.3616913911997
 30
0.0
 10
154.9684044018476
 20
-553.3616913911997
 30
0.0
 10
154.9684044018476
 20
-553.3616913911997
 30
0.0
 10
149.1300138215501
 20
-553.3616913906742
 30
0.0
 10
149.1300138215501
 20
-553.3616913906742
 30
0.0
 10
147.4921958755801
 20
-553.3616913905997
 30
0.0
 10
146.1644820982149
 20
-552.7395331684999
 30
0.0
 10
146.1644820982893
 20
-551.101715222524
 30
0.0
  0
SPLINE
  5
87
330
1F
100
AcDbEntity
  8
Layer 1
 62
   250
420
  2301728
370
    35
100
AcDbSpline
210
0.0
220
0.0
230
1.0
 70
     8
 71
     3
 72
    32
 73
    28
 74
     0
 42
0.0000000001
 43
0.0000000001
 12
1.0
 22
0.0
 32
0.0
 13
1.0
 23
0.0
 33
0.0
 40
0.0
 40
0.0
 40
0.0
 40
0.0
 40
1.0
 40
1.0
 40
1.0
 40
2.0
 40
2.0
 40
2.0
 40
3.0
 40
3.0
 40
3.0
 40
4.0
 40
4.0
 40
4.0
 40
5.0
 40
5.0
 40
5.0
 40
6.0
 40
6.0
 40
6.0
 40
7.0
 40
7.0
 40
7.0
 40
8.0
 40
8.0
 40
8.0
 40
9.0
 40
9.0
 40
9.0
 40
9.0
 10
163.5571197136242
 20
-542.7154202259254
 30
0.0
 10
163.5571197137089
 20
-541.7776591089953
 30
0.0
 10
164.3173253019185
 20
-541.0174535209226
 30
0.0
 10
165.2550864188525
 20
-541.0174535210041
 30
0.0
 10
165.2550864188525
 20
-541.0174535210041
 30
0.0
 10
166.7378584170516
 20
-541.0174535211381
 30
0.0
 10
166.7378584170516
 20
-541.0174535211381
 30
0.0
 10
168.3756763617177
 20
-541.0174535212864
 30
0.0
 10
169.7033901384806
 20
-542.3451672967929
 30
0.0
 10
169.7033901401786
 20
-543.9829852414609
 30
0.0
 10
169.7033901401786
 20
-543.9829852414609
 30
0.0
 10
169.7033901460475
 20
-551.1017152245736
 30
0.0
 10
169.7033901460475
 20
-551.1017152245736
 30
0.0
 10
169.7033901477442
 20
-552.7395331700027
 30
0.0
 10
168.3756763711561
 20
-553.3616913924728
 30
0.0
 10
166.7378584257264
 20
-553.3616913923246
 30
0.0
 10
166.7378584257264
 20
-553.3616913923246
 30
0.0
 10
166.6084596456668
 20
-553.3616913923105
 30
0.0
 10
166.6084596456668
 20
-553.3616913923105
 30
0.0
 10
166.6084596456668
 20
-553.3616913923105
 30
0.0
 10
166.7378584257264
 20
-553.361691392254
 30
0.0
 10
166.7378584257264
 20
-553.361691392254
 30
0.0
 10
166.7378584257264
 20
-553.361691392254
 30
0.0
 10
160.8994678454292
 20
-553.3616913917355
 30
0.0
 10
160.8994678454292
 20
-553.3616913917355
 30
0.0
 10
159.2616498994591
 20
-553.3616913916585
 30
0.0
 10
157.933936122094
 20
-552.7395331695516
 30
0.0
 10
157.9339361221681
 20
-551.1017152235854
 30
0.0
  0
SPLINE
  5
88
330
1F
100
AcDbEntity
  8
Layer 1
 62
   250
420
  2301728
370
    35
100
AcDbSpline
210
0.0
220
0.0
230
1.0
 70
     8
 71
     3
 72
    32
 73
    28
 74
     0
 42
0.0000000001
 43
0.0000000001
 12
1.0
 22
0.0
 32
0.0
 13
1.0
 23
0.0
 33
0.0
 40
0.0
 40
0.0
 40
0.0
 40
0.0
 40
1.0
 40
1.0
 40
1.0
 40
2.0
 40
2.0
 40
2.0
 40
3.0
 40
3.0
 40
3.0
 40
4.0
 40
4.0
 40
4.0
 40
5.0
 40
5.0
 40
5.0
 40
6.0
 40
6.0
 40
6.0
 40
7.0
 40
7.0
 40
7.0
 40
8.0
 40
8.0
 40
8.0
 40
9.0
 40
9.0
 40
9.0
 40
9.0
 10
175.3265737375033
 20
-542.7154202269835
 30
0.0
 10
175.3265737375873
 20
-541.7776591100541
 30
0.0
 10
176.0867793257986
 20
-541.0174535219775
 30
0.0
 10
177.0245404427323
 20
-541.017453522066
 30
0.0
 10
177.0245404427323
 20
-541.017453522066
 30
0.0
 10
178.5073124409314
 20
-541.0174535221931
 30
0.0
 10
178.5073124409314
 20
-541.0174535221931
 30
0.0
 10
180.1451303855974
 20
-541.0174535223407
 30
0.0
 10
181.4728441623604
 20
-542.3451672978517
 30
0.0
 10
181.4728441640577
 20
-543.9829852425152
 30
0.0
 10
181.4728441640577
 20
-543.9829852425152
 30
0.0
 10
181.472844169926
 20
-551.1017152256356
 30
0.0
 10
181.472844169926
 20
-551.1017152256356
 30
0.0
 10
181.4728441716233
 20
-552.7395331710615
 30
0.0
 10
180.1451303950352
 20
-553.3616913935246
 30
0.0
 10
178.5073124496052
 20
-553.3616913933763
 30
0.0
 10
178.5073124496052
 20
-553.3616913933763
 30
0.0
 10
178.3779136695459
 20
-553.3616913933654
 30
0.0
 10
178.3779136695459
 20
-553.3616913933654
 30
0.0
 10
178.3779136695459
 20
-553.3616913933654
 30
0.0
 10
178.5073124496052
 20
-553.361691393316
 30
0.0
 10
178.5073124496052
 20
-553.361691393316
 30
0.0
 10
178.5073124496052
 20
-553.361691393316
 30
0.0
 10
172.6689218693083
 20
-553.3616913927873
 30
0.0
 10
172.6689218693083
 20
-553.3616913927873
 30
0.0
 10
171.0311039233383
 20
-553.3616913927128
 30
0.0
 10
169.7033901459731
 20
-552.739533170613
 30
0.0
 10
169.7033901460475
 20
-551.1017152246442
 30
0.0
  0
SPLINE
  5
89
330
1F
100
AcDbEntity
  8
Layer 1
 62
   250
420
  2301728
370
    35
100
AcDbSpline
210
0.0
220
0.0
230
1.0
 70
     8
 71
     3
 72
    32
 73
    28
 74
     0
 42
0.0000000001
 43
0.0000000001
 12
1.0
 22
0.0
 32
0.0
 13
1.0
 23
0.0
 33
0.0
 40
0.0
 40
0.0
 40
0.0
 40
0.0
 40
1.0
 40
1.0
 40
1.0
 40
2.0
 40
2.0
 40
2.0
 40
3.0
 40
3.0
 40
3.0
 40
4.0
 40
4.0
 40
4.0
 40
5.0
 40
5.0
 40
5.0
 40
6.0
 40
6.0
 40
6.0
 40
7.0
 40
7.0
 40
7.0
 40
8.0
 40
8.0
 40
8.0
 40
9.0
 40
9.0
 40
9.0
 40
9.0
 10
187.0960277613824
 20
-542.7154202280424
 30
0.0
 10
187.0960277614671
 20
-541.7776591111084
 30
0.0
 10
187.8562333496768
 20
-541.0174535230357
 30
0.0
 10
188.7939944666107
 20
-541.0174535231204
 30
0.0
 10
188.7939944666107
 20
-541.0174535231204
 30
0.0
 10
190.2767664648098
 20
-541.0174535232513
 30
0.0
 10
190.2767664648098
 20
-541.0174535232513
 30
0.0
 10
191.9145844094759
 20
-541.0174535233957
 30
0.0
 10
193.2422981862388
 20
-542.345167298906
 30
0.0
 10
193.2422981879368
 20
-543.9829852435734
 30
0.0
 10
193.2422981879368
 20
-543.9829852435734
 30
0.0
 10
193.2422981938061
 20
-551.1017152266867
 30
0.0
 10
193.2422981938061
 20
-551.1017152266867
 30
0.0
 10
193.2422981955024
 20
-552.7395331721158
 30
0.0
 10
191.9145844189143
 20
-553.3616913945859
 30
0.0
 10
190.2767664734843
 20
-553.3616913944384
 30
0.0
 10
190.2767664734843
 20
-553.3616913944384
 30
0.0
 10
190.147367693425
 20
-553.3616913944243
 30
0.0
 10
190.147367693425
 20
-553.3616913944243
 30
0.0
 10
190.147367693425
 20
-553.3616913944243
 30
0.0
 10
190.2767664734843
 20
-553.3616913943748
 30
0.0
 10
190.2767664734843
 20
-553.3616913943748
 30
0.0
 10
190.2767664734843
 20
-553.3616913943748
 30
0.0
 10
184.4383758931874
 20
-553.3616913938492
 30
0.0
 10
184.4383758931874
 20
-553.3616913938492
 30
0.0
 10
182.8005579472177
 20
-553.361691393771
 30
0.0
 10
181.4728441698525
 20
-552.7395331716647
 30
0.0
 10
181.472844169926
 20
-551.1017152256985
 30
0.0
  0
SPLINE
  5
8A
330
1F
100
AcDbEntity
  8
Layer 1
 62
   250
420
  2301728
370
    35
100
AcDbSpline
210
0.0
220
0.0
230
1.0
 70
     8
 71
     3
 72
    32
 73
    28
 74
     0
 42
0.0000000001
 43
0.0000000001
 12
1.0
 22
0.0
 32
0.0
 13
1.0
 23
0.0
 33
0.0
 40
0.0
 40
0.0
 40
0.0
 40
0.0
 40
1.0
 40
1.0
 40
1.0
 40
2.0
 40
2.0
 40
2.0
 40
3.0
 40
3.0
 40
3.0
 40
4.0
 40
4.0
 40
4.0
 40
5.0
 40
5.0
 40
5.0
 40
6.0
 40
6.0
 40
6.0
 40
7.0
 40
7.0
 40
7.0
 40
8.0
 40
8.0
 40
8.0
 40
9.0
 40
9.0
 40
9.0
 40
9.0
 10
198.8654817852615
 20
-542.7154202290973
 30
0.0
 10
198.8654817853455
 20
-541.7776591121633
 30
0.0
 10
199.6256873735568
 20
-541.0174535240906
 30
0.0
 10
200.5634484904905
 20
-541.0174535241791
 30
0.0
 10
200.5634484904905
 20
-541.0174535241791
 30
0.0
 10
202.0462204886896
 20
-541.0174535243056
 30
0.0
 10
202.0462204886896
 20
-541.0174535243056
 30
0.0
 10
203.6840384333557
 20
-541.0174535244538
 30
0.0
 10
205.0117522101186
 20
-542.3451672999648
 30
0.0
 10
205.0117522118159
 20
-543.9829852446284
 30
0.0
 10
205.0117522118159
 20
-543.9829852446284
 30
0.0
 10
205.0117522176842
 20
-551.1017152277481
 30
0.0
 10
205.0117522176842
 20
-551.1017152277481
 30
0.0
 10
205.0117522193815
 20
-552.7395331731746
 30
0.0
 10
203.6840384427935
 20
-553.3616913956376
 30
0.0
 10
202.0462204973634
 20
-553.3616913954927
 30
0.0
 10
202.0462204973634
 20
-553.3616913954927
 30
0.0
 10
201.9168217173041
 20
-553.3616913954824
 30
0.0
 10
201.9168217173041
 20
-553.3616913954824
 30
0.0
 10
201.9168217173041
 20
-553.3616913954824
 30
0.0
 10
202.0462204973634
 20
-553.361691395426
 30
0.0
 10
202.0462204973634
 20
-553.361691395426
 30
0.0
 10
202.0462204973634
 20
-553.361691395426
 30
0.0
 10
196.2078299170665
 20
-553.3616913949004
 30
0.0
 10
196.2078299170665
 20
-553.3616913949004
 30
0.0
 10
194.5700119710968
 20
-553.3616913948259
 30
0.0
 10
193.2422981937316
 20
-552.739533172726
 30
0.0
 10
193.2422981938061
 20
-551.1017152267534
 30
0.0
  0
SPLINE
  5
8B
330
1F
100
AcDbEntity
  8
Layer 1
 62
   250
420
  2301728
370
    35
100
AcDbSpline
210
0.0
220
0.0
230
1.0
 70
     8
 71
     3
 72
    32
 73
    28
 74
     0
 42
0.0000000001
 43
0.0000000001
 12
1.0
 22
0.0
 32
0.0
 13
1.0
 23
0.0
 33
0.0
 40
0.0
 40
0.0
 40
0.0
 40
0.0
 40
1.0
 40
1.0
 40
1.0
 40
2.0
 40
2.0
 40
2.0
 40
3.0
 40
3.0
 40
3.0
 40
4.0
 40
4.0
 40
4.0
 40
5.0
 40
5.0
 40
5.0
 40
6.0
 40
6.0
 40
6.0
 40
7.0
 40
7.0
 40
7.0
 40
8.0
 40
8.0
 40
8.0
 40
9.0
 40
9.0
 40
9.0
 40
9.0
 10
210.6349358091409
 20
-542.7154202301555
 30
0.0
 10
210.6349358092253
 20
-541.7776591132215
 30
0.0
 10
211.395141397435
 20
-541.0174535251488
 30
0.0
 10
212.332902514369
 20
-541.0174535252335
 30
0.0
 10
212.332902514369
 20
-541.0174535252335
 30
0.0
 10
213.815674512568
 20
-541.0174535253676
 30
0.0
 10
213.815674512568
 20
-541.0174535253676
 30
0.0
 10
215.4534924572341
 20
-541.0174535255127
 30
0.0
 10
216.781206233997
 20
-542.345167301019
 30
0.0
 10
216.781206235695
 20
-543.9829852456871
 30
0.0
 10
216.781206235695
 20
-543.9829852456871
 30
0.0
 10
216.7812062415643
 20
-551.1017152287999
 30
0.0
 10
216.7812062415643
 20
-551.1017152287999
 30
0.0
 10
216.7812062432606
 20
-552.7395331742289
 30
0.0
 10
215.4534924666726
 20
-553.3616913966997
 30
0.0
 10
213.8156745212425
 20
-553.3616913965515
 30
0.0
 10
213.8156745212425
 20
-553.3616913965515
 30
0.0
 10
213.6862757411832
 20
-553.3616913965374
 30
0.0
 10
213.6862757411832
 20
-553.3616913965374
 30
0.0
 10
213.6862757411832
 20
-553.3616913965374
 30
0.0
 10
213.8156745212425
 20
-553.3616913964879
 30
0.0
 10
213.8156745212425
 20
-553.3616913964879
 30
0.0
 10
213.8156745212425
 20
-553.3616913964879
 30
0.0
 10
207.9772839409456
 20
-553.3616913959618
 30
0.0
 10
207.9772839409456
 20
-553.3616913959618
 30
0.0
 10
206.3394659949759
 20
-553.3616913958847
 30
0.0
 10
205.0117522176107
 20
-552.739533173781
 30
0.0
 10
205.0117522176842
 20
-551.1017152278123
 30
0.0
  0
SPLINE
  5
8C
330
1F
100
AcDbEntity
  8
Layer 1
 62
   250
420
  2301728
370
    35
100
AcDbSpline
210
0.0
220
0.0
230
1.0
 70
     8
 71
     3
 72
    32
 73
    28
 74
     0
 42
0.0000000001
 43
0.0000000001
 12
1.0
 22
0.0
 32
0.0
 13
1.0
 23
0.0
 33
0.0
 40
0.0
 40
0.0
 40
0.0
 40
0.0
 40
1.0
 40
1.0
 40
1.0
 40
2.0
 40
2.0
 40
2.0
 40
3.0
 40
3.0
 40
3.0
 40
4.0
 40
4.0
 40
4.0
 40
5.0
 40
5.0
 40
5.0
 40
6.0
 40
6.0
 40
6.0
 40
7.0
 40
7.0
 40
7.0
 40
8.0
 40
8.0
 40
8.0
 40
9.0
 40
9.0
 40
9.0
 40
9.0
 10
222.40438983302
 20
-542.7154202312174
 30
0.0
 10
222.4043898331037
 20
-541.7776591142764
 30
0.0
 10
223.1645954213144
 20
-541.0174535262038
 30
0.0
 10
224.1023565382487
 20
-541.0174535262885
 30
0.0
 10
224.1023565382487
 20
-541.0174535262885
 30
0.0
 10
225.5851285364471
 20
-541.0174535264264
 30
0.0
 10
225.5851285364471
 20
-541.0174535264264
 30
0.0
 10
227.2229464811139
 20
-541.0174535265669
 30
0.0
 10
228.5506602578768
 20
-542.3451673020779
 30
0.0
 10
228.5506602595741
 20
-543.9829852467415
 30
0.0
 10
228.5506602595741
 20
-543.9829852467415
 30
0.0
 10
228.5506602654431
 20
-551.1017152298618
 30
0.0
 10
228.5506602654431
 20
-551.1017152298618
 30
0.0
 10
228.5506602671407
 20
-552.7395331752878
 30
0.0
 10
227.2229464905517
 20
-553.361691397754
 30
0.0
 10
225.5851285451223
 20
-553.3616913976058
 30
0.0
 10
225.5851285451223
 20
-553.3616913976058
 30
0.0
 10
225.4557297650624
 20
-553.3616913975987
 30
0.0
 10
225.4557297650624
 20
-553.3616913975987
 30
0.0
 10
225.4557297650624
 20
-553.3616913975987
 30
0.0
 10
225.5851285451223
 20
-553.3616913975422
 30
0.0
 10
225.5851285451223
 20
-553.3616913975422
 30
0.0
 10
225.5851285451223
 20
-553.3616913975422
 30
0.0
 10
219.7467379648247
 20
-553.3616913970167
 30
0.0
 10
219.7467379648247
 20
-553.3616913970167
 30
0.0
 10
218.108920018855
 20
-553.3616913969429
 30
0.0
 10
216.7812062414899
 20
-552.7395331748398
 30
0.0
 10
216.7812062415643
 20
-551.1017152288666
 30
0.0
  0
SPLINE
  5
8D
330
1F
100
AcDbEntity
  8
Layer 1
 62
   250
420
  2301728
370
    35
100
AcDbSpline
210
0.0
220
0.0
230
1.0
 70
     8
 71
     3
 72
    32
 73
    28
 74
     0
 42
0.0000000001
 43
0.0000000001
 12
1.0
 22
0.0
 32
0.0
 13
1.0
 23
0.0
 33
0.0
 40
0.0
 40
0.0
 40
0.0
 40
0.0
 40
1.0
 40
1.0
 40
1.0
 40
2.0
 40
2.0
 40
2.0
 40
3.0
 40
3.0
 40
3.0
 40
4.0
 40
4.0
 40
4.0
 40
5.0
 40
5.0
 40
5.0
 40
6.0
 40
6.0
 40
6.0
 40
7.0
 40
7.0
 40
7.0
 40
8.0
 40
8.0
 40
8.0
 40
9.0
 40
9.0
 40
9.0
 40
9.0
 10
234.1738438568991
 20
-542.7154202322718
 30
0.0
 10
234.1738438569835
 20
-541.7776591153346
 30
0.0
 10
234.9340494451935
 20
-541.0174535272625
 30
0.0
 10
235.8718105621272
 20
-541.0174535273466
 30
0.0
 10
235.8718105621272
 20
-541.0174535273466
 30
0.0
 10
237.3545825603259
 20
-541.0174535274775
 30
0.0
 10
237.3545825603259
 20
-541.0174535274775
 30
0.0
 10
238.992400504993
 20
-541.0174535276258
 30
0.0
 10
240.3201142817559
 20
-542.3451673031323
 30
0.0
 10
240.3201142834526
 20
-543.9829852478002
 30
0.0
 10
240.3201142834526
 20
-543.9829852478002
 30
0.0
 10
240.3201142893228
 20
-550.396159675537
 30
0.0
 10
240.3201142893228
 20
-550.396159675537
 30
0.0
 10
240.3201142910195
 20
-552.03397762097
 30
0.0
 10
238.9924005144298
 20
-553.3616913988121
 30
0.0
 10
237.3545825690007
 20
-553.3616913986646
 30
0.0
 10
237.3545825690007
 20
-553.3616913986646
 30
0.0
 10
237.2251837889405
 20
-553.3616913986505
 30
0.0
 10
237.2251837889405
 20
-553.3616913986505
 30
0.0
 10
237.2251837889405
 20
-553.3616913986505
 30
0.0
 10
237.3545825690007
 20
-553.3616913985971
 30
0.0
 10
237.3545825690007
 20
-553.3616913985971
 30
0.0
 10
237.3545825690007
 20
-553.3616913985971
 30
0.0
 10
231.5161919887038
 20
-553.3616913980755
 30
0.0
 10
231.5161919887038
 20
-553.3616913980755
 30
0.0
 10
229.8783740427341
 20
-553.3616913979979
 30
0.0
 10
228.5506602653686
 20
-552.7395331758942
 30
0.0
 10
228.5506602654431
 20
-551.1017152299247
 30
0.0
  0
SPLINE
  5
8E
330
1F
100
AcDbEntity
  8
Layer 1
 62
   250
420
  2301728
370
    35
100
AcDbSpline
210
0.0
220
0.0
230
1.0
 70
     8
 71
     3
 72
    11
 73
     7
 74
     0
 42
0.0000000001
 43
0.0000000001
 12
1.0
 22
0.0
 32
0.0
 13
1.0
 23
0.0
 33
0.0
 40
0.0
 40
0.0
 40
0.0
 40
0.0
 40
1.0
 40
1.0
 40
1.0
 40
2.0
 40
2.0
 40
2.0
 40
2.0
 10
243.2467160127015
 20
-554.0577193123297
 30
0.0
 10
243.2467160127015
 20
-554.0577193123297
 30
0.0
 10
243.2856460125848
 20
-554.0577194202262
 30
0.0
 10
243.2856460125848
 20
-554.0577194202262
 30
0.0
 10
241.6478280666148
 20
-554.0577194201556
 30
0.0
 10
240.3201142892487
 20
-552.7300056426702
 30
0.0
 10
240.3201142893228
 20
-551.092187696704
 30
0.0
  0
SPLINE
  5
8F
330
1F
100
AcDbEntity
  8
Layer 1
 62
   250
420
  2301728
370
    35
100
AcDbSpline
210
0.0
220
0.0
230
1.0
 70
     8
 71
     3
 72
    32
 73
    28
 74
     0
 42
0.0000000001
 43
0.0000000001
 12
1.0
 22
0.0
 32
0.0
 13
1.0
 23
0.0
 33
0.0
 40
0.0
 40
0.0
 40
0.0
 40
0.0
 40
1.0
 40
1.0
 40
1.0
 40
2.0
 40
2.0
 40
2.0
 40
3.0
 40
3.0
 40
3.0
 40
4.0
 40
4.0
 40
4.0
 40
5.0
 40
5.0
 40
5.0
 40
6.0
 40
6.0
 40
6.0
 40
7.0
 40
7.0
 40
7.0
 40
8.0
 40
8.0
 40
8.0
 40
9.0
 40
9.0
 40
9.0
 40
9.0
 10
805.1046383683924
 20
-539.0670677787501
 30
0.0
 10
805.1046383682269
 20
-540.0048288956873
 30
0.0
 10
804.3444327799463
 20
-540.7650344836965
 30
0.0
 10
803.4066716630123
 20
-540.7650344835271
 30
0.0
 10
803.4066716630123
 20
-540.7650344835271
 30
0.0
 10
801.9238996648141
 20
-540.765034483255
 30
0.0
 10
801.9238996648141
 20
-540.765034483255
 30
0.0
 10
800.2860817201469
 20
-540.7650344829663
 30
0.0
 10
798.958367943504
 20
-539.4373207073353
 30
0.0
 10
798.9583679419517
 20
-537.7995027626679
 30
0.0
 10
798.9583679419517
 20
-537.7995027626679
 30
0.0
 10
798.9583679366916
 20
-531.3863283349376
 30
0.0
 10
798.9583679366916
 20
-531.3863283349376
 30
0.0
 10
798.9583679351432
 20
-529.7485103895046
 30
0.0
 10
800.286081711849
 20
-528.4207966117792
 30
0.0
 10
801.9238996572788
 20
-528.420796612075
 30
0.0
 10
801.9238996572788
 20
-528.420796612075
 30
0.0
 10
802.053298437339
 20
-528.4207966120969
 30
0.0
 10
802.053298437339
 20
-528.4207966120969
 30
0.0
 10
802.053298437339
 20
-528.4207966120969
 30
0.0
 10
801.9238996572788
 20
-528.4207966121392
 30
0.0
 10
801.9238996572788
 20
-528.4207966121392
 30
0.0
 10
801.9238996572788
 20
-528.4207966121392
 30
0.0
 10
807.7622902375766
 20
-528.4207966131864
 30
0.0
 10
807.7622902375766
 20
-528.4207966131864
 30
0.0
 10
809.400108183546
 20
-528.4207966134092
 30
0.0
 10
810.7278219607882
 20
-529.7485103910113
 30
0.0
 10
810.72782196057
 20
-531.3863283369807
 30
0.0
  0
SPLINE
  5
90
330
1F
100
AcDbEntity
  8
Layer 1
 62
   250
420
  2301728
370
    35
100
AcDbSpline
210
0.0
220
0.0
230
1.0
 70
     8
 71
     3
 72
    32
 73
    28
 74
     0
 42
0.0000000001
 43
0.0000000001
 12
1.0
 22
0.0
 32
0.0
 13
1.0
 23
0.0
 33
0.0
 40
0.0
 40
0.0
 40
0.0
 40
0.0
 40
1.0
 40
1.0
 40
1.0
 40
2.0
 40
2.0
 40
2.0
 40
3.0
 40
3.0
 40
3.0
 40
4.0
 40
4.0
 40
4.0
 40
5.0
 40
5.0
 40
5.0
 40
6.0
 40
6.0
 40
6.0
 40
7.0
 40
7.0
 40
7.0
 40
8.0
 40
8.0
 40
8.0
 40
9.0
 40
9.0
 40
9.0
 40
9.0
 10
793.3351843445147
 20
-539.067067776637
 30
0.0
 10
793.3351843443452
 20
-540.0048288935736
 30
0.0
 10
792.5749787560678
 20
-540.7650344815763
 30
0.0
 10
791.6372176391345
 20
-540.765034481414
 30
0.0
 10
791.6372176391345
 20
-540.765034481414
 30
0.0
 10
790.1544456409364
 20
-540.7650344811419
 30
0.0
 10
790.1544456409364
 20
-540.7650344811419
 30
0.0
 10
788.516627696269
 20
-540.7650344808525
 30
0.0
 10
787.1889139196222
 20
-539.4373207052222
 30
0.0
 10
787.1889139180738
 20
-537.7995027605548
 30
0.0
 10
787.1889139180738
 20
-537.7995027605548
 30
0.0
 10
787.1889139128137
 20
-531.3863283328251
 30
0.0
 10
787.1889139128137
 20
-531.3863283328251
 30
0.0
 10
787.1889139112577
 20
-529.7485103873884
 30
0.0
 10
788.5166276879712
 20
-528.4207966096623
 30
0.0
 10
790.1544456334009
 20
-528.4207966099625
 30
0.0
 10
790.1544456334009
 20
-528.4207966099625
 30
0.0
 10
790.2838444134572
 20
-528.4207966099831
 30
0.0
 10
790.2838444134572
 20
-528.4207966099831
 30
0.0
 10
790.2838444134572
 20
-528.4207966099831
 30
0.0
 10
790.1544456334009
 20
-528.4207966100254
 30
0.0
 10
790.1544456334009
 20
-528.4207966100254
 30
0.0
 10
790.1544456334009
 20
-528.4207966100254
 30
0.0
 10
795.992836213695
 20
-528.4207966110733
 30
0.0
 10
795.992836213695
 20
-528.4207966110733
 30
0.0
 10
797.6306541596682
 20
-528.4207966112959
 30
0.0
 10
798.9583679369136
 20
-529.7485103889014
 30
0.0
 10
798.9583679366916
 20
-531.3863283348676
 30
0.0
  0
SPLINE
  5
91
330
1F
100
AcDbEntity
  8
Layer 1
 62
   250
420
  2301728
370
    35
100
AcDbSpline
210
0.0
220
0.0
230
1.0
 70
     8
 71
     3
 72
    32
 73
    28
 74
     0
 42
0.0000000001
 43
0.0000000001
 12
1.0
 22
0.0
 32
0.0
 13
1.0
 23
0.0
 33
0.0
 40
0.0
 40
0.0
 40
0.0
 40
0.0
 40
1.0
 40
1.0
 40
1.0
 40
2.0
 40
2.0
 40
2.0
 40
3.0
 40
3.0
 40
3.0
 40
4.0
 40
4.0
 40
4.0
 40
5.0
 40
5.0
 40
5.0
 40
6.0
 40
6.0
 40
6.0
 40
7.0
 40
7.0
 40
7.0
 40
8.0
 40
8.0
 40
8.0
 40
9.0
 40
9.0
 40
9.0
 40
9.0
 10
781.565730320633
 20
-539.0670677745239
 30
0.0
 10
781.5657303204674
 20
-540.0048288914604
 30
0.0
 10
780.8055247321901
 20
-540.7650344794625
 30
0.0
 10
779.8677636152566
 20
-540.7650344792931
 30
0.0
 10
779.8677636152566
 20
-540.7650344792931
 30
0.0
 10
778.3849916170547
 20
-540.7650344790288
 30
0.0
 10
778.3849916170547
 20
-540.7650344790288
 30
0.0
 10
776.7471736723905
 20
-540.7650344787394
 30
0.0
 10
775.4194598957444
 20
-539.4373207031058
 30
0.0
 10
775.4194598941954
 20
-537.7995027584417
 30
0.0
 10
775.4194598941954
 20
-537.7995027584417
 30
0.0
 10
775.4194598889321
 20
-531.3863283307049
 30
0.0
 10
775.4194598889321
 20
-531.3863283307049
 30
0.0
 10
775.419459887383
 20
-529.7485103852785
 30
0.0
 10
776.7471736640895
 20
-528.420796607549
 30
0.0
 10
778.3849916095193
 20
-528.4207966078487
 30
0.0
 10
778.3849916095193
 20
-528.4207966078487
 30
0.0
 10
778.5143903895795
 20
-528.4207966078706
 30
0.0
 10
778.5143903895795
 20
-528.4207966078706
 30
0.0
 10
778.5143903895795
 20
-528.4207966078706
 30
0.0
 10
778.3849916095193
 20
-528.4207966079123
 30
0.0
 10
778.3849916095193
 20
-528.4207966079123
 30
0.0
 10
778.3849916095193
 20
-528.4207966079123
 30
0.0
 10
784.2233821898133
 20
-528.420796608957
 30
0.0
 10
784.2233821898133
 20
-528.420796608957
 30
0.0
 10
785.8612001357865
 20
-528.4207966091823
 30
0.0
 10
787.1889139130326
 20
-529.7485103867851
 30
0.0
 10
787.1889139128137
 20
-531.3863283327545
 30
0.0
  0
SPLINE
  5
92
330
1F
100
AcDbEntity
  8
Layer 1
 62
   250
420
  2301728
370
    35
100
AcDbSpline
210
0.0
220
0.0
230
1.0
 70
     8
 71
     3
 72
    32
 73
    28
 74
     0
 42
0.0000000001
 43
0.0000000001
 12
1.0
 22
0.0
 32
0.0
 13
1.0
 23
0.0
 33
0.0
 40
0.0
 40
0.0
 40
0.0
 40
0.0
 40
1.0
 40
1.0
 40
1.0
 40
2.0
 40
2.0
 40
2.0
 40
3.0
 40
3.0
 40
3.0
 40
4.0
 40
4.0
 40
4.0
 40
5.0
 40
5.0
 40
5.0
 40
6.0
 40
6.0
 40
6.0
 40
7.0
 40
7.0
 40
7.0
 40
8.0
 40
8.0
 40
8.0
 40
9.0
 40
9.0
 40
9.0
 40
9.0
 10
769.7962762967551
 20
-539.0670677724108
 30
0.0
 10
769.796276296589
 20
-540.0048288893473
 30
0.0
 10
769.0360707083083
 20
-540.7650344773494
 30
0.0
 10
768.098309591375
 20
-540.7650344771871
 30
0.0
 10
768.098309591375
 20
-540.7650344771871
 30
0.0
 10
766.6155375931769
 20
-540.7650344769156
 30
0.0
 10
766.6155375931769
 20
-540.7650344769156
 30
0.0
 10
764.9777196485088
 20
-540.7650344766263
 30
0.0
 10
763.6500058718659
 20
-539.4373207009959
 30
0.0
 10
763.6500058703143
 20
-537.7995027563325
 30
0.0
 10
763.6500058703143
 20
-537.7995027563325
 30
0.0
 10
763.6500058650537
 20
-531.3863283285912
 30
0.0
 10
763.6500058650537
 20
-531.3863283285912
 30
0.0
 10
763.6500058635021
 20
-529.748510383162
 30
0.0
 10
764.9777196402117
 20
-528.4207966054398
 30
0.0
 10
766.6155375856414
 20
-528.4207966057286
 30
0.0
 10
766.6155375856414
 20
-528.4207966057286
 30
0.0
 10
766.744936365701
 20
-528.4207966057569
 30
0.0
 10
766.744936365701
 20
-528.4207966057569
 30
0.0
 10
766.744936365701
 20
-528.4207966057569
 30
0.0
 10
766.6155375856414
 20
-528.4207966057992
 30
0.0
 10
766.6155375856414
 20
-528.4207966057992
 30
0.0
 10
766.6155375856414
 20
-528.4207966057992
 30
0.0
 10
772.4539281659387
 20
-528.4207966068439
 30
0.0
 10
772.4539281659387
 20
-528.4207966068439
 30
0.0
 10
774.091746111908
 20
-528.4207966070697
 30
0.0
 10
775.4194598891542
 20
-529.7485103846682
 30
0.0
 10
775.4194598889321
 20
-531.3863283306407
 30
0.0
  0
SPLINE
  5
93
330
1F
100
AcDbEntity
  8
Layer 1
 62
   250
420
  2301728
370
    35
100
AcDbSpline
210
0.0
220
0.0
230
1.0
 70
     8
 71
     3
 72
    32
 73
    28
 74
     0
 42
0.0000000001
 43
0.0000000001
 12
1.0
 22
0.0
 32
0.0
 13
1.0
 23
0.0
 33
0.0
 40
0.0
 40
0.0
 40
0.0
 40
0.0
 40
1.0
 40
1.0
 40
1.0
 40
2.0
 40
2.0
 40
2.0
 40
3.0
 40
3.0
 40
3.0
 40
4.0
 40
4.0
 40
4.0
 40
5.0
 40
5.0
 40
5.0
 40
6.0
 40
6.0
 40
6.0
 40
7.0
 40
7.0
 40
7.0
 40
8.0
 40
8.0
 40
8.0
 40
9.0
 40
9.0
 40
9.0
 40
9.0
 10
758.0268222728766
 20
-539.0670677702971
 30
0.0
 10
758.0268222727111
 20
-540.0048288872342
 30
0.0
 10
757.2666166844305
 20
-540.7650344752363
 30
0.0
 10
756.3288555674966
 20
-540.765034475067
 30
0.0
 10
756.3288555674966
 20
-540.765034475067
 30
0.0
 10
754.8460835692985
 20
-540.7650344748025
 30
0.0
 10
754.8460835692985
 20
-540.7650344748025
 30
0.0
 10
753.2082656246272
 20
-540.7650344745061
 30
0.0
 10
751.8805518479849
 20
-539.4373206988796
 30
0.0
 10
751.8805518464359
 20
-537.7995027542192
 30
0.0
 10
751.8805518464359
 20
-537.7995027542192
 30
0.0
 10
751.8805518411758
 20
-531.3863283264781
 30
0.0
 10
751.8805518411758
 20
-531.3863283264781
 30
0.0
 10
751.8805518396235
 20
-529.748510381049
 30
0.0
 10
753.2082656163338
 20
-528.4207966033267
 30
0.0
 10
754.846083561763
 20
-528.4207966036155
 30
0.0
 10
754.846083561763
 20
-528.4207966036155
 30
0.0
 10
754.9754823418232
 20
-528.4207966036437
 30
0.0
 10
754.9754823418232
 20
-528.4207966036437
 30
0.0
 10
754.9754823418232
 20
-528.4207966036437
 30
0.0
 10
754.846083561763
 20
-528.4207966036861
 30
0.0
 10
754.846083561763
 20
-528.4207966036861
 30
0.0
 10
754.846083561763
 20
-528.4207966036861
 30
0.0
 10
760.6844741420608
 20
-528.4207966047308
 30
0.0
 10
760.6844741420608
 20
-528.4207966047308
 30
0.0
 10
762.3222920880302
 20
-528.420796604956
 30
0.0
 10
763.6500058652763
 20
-529.7485103825551
 30
0.0
 10
763.6500058650537
 20
-531.3863283285283
 30
0.0
  0
SPLINE
  5
94
330
1F
100
AcDbEntity
  8
Layer 1
 62
   250
420
  2301728
370
    35
100
AcDbSpline
210
0.0
220
0.0
230
1.0
 70
     8
 71
     3
 72
    32
 73
    28
 74
     0
 42
0.0000000001
 43
0.0000000001
 12
1.0
 22
0.0
 32
0.0
 13
1.0
 23
0.0
 33
0.0
 40
0.0
 40
0.0
 40
0.0
 40
0.0
 40
1.0
 40
1.0
 40
1.0
 40
2.0
 40
2.0
 40
2.0
 40
3.0
 40
3.0
 40
3.0
 40
4.0
 40
4.0
 40
4.0
 40
5.0
 40
5.0
 40
5.0
 40
6.0
 40
6.0
 40
6.0
 40
7.0
 40
7.0
 40
7.0
 40
8.0
 40
8.0
 40
8.0
 40
9.0
 40
9.0
 40
9.0
 40
9.0
 10
746.2573682489989
 20
-539.0670677681845
 30
0.0
 10
746.2573682488295
 20
-540.004828885118
 30
0.0
 10
745.497162660552
 20
-540.7650344731233
 30
0.0
 10
744.5594015436187
 20
-540.7650344729544
 30
0.0
 10
744.5594015436187
 20
-540.7650344729544
 30
0.0
 10
743.0766295454167
 20
-540.7650344726933
 30
0.0
 10
743.0766295454167
 20
-540.7650344726933
 30
0.0
 10
741.4388116007526
 20
-540.7650344723929
 30
0.0
 10
740.1110978241064
 20
-539.4373206967665
 30
0.0
 10
740.111097822558
 20
-537.7995027521056
 30
0.0
 10
740.111097822558
 20
-537.7995027521056
 30
0.0
 10
740.1110978172942
 20
-531.386328324365
 30
0.0
 10
740.1110978172942
 20
-531.386328324365
 30
0.0
 10
740.1110978157458
 20
-529.7485103789359
 30
0.0
 10
741.4388115924522
 20
-528.4207966012136
 30
0.0
 10
743.0766295378851
 20
-528.4207966015024
 30
0.0
 10
743.0766295378851
 20
-528.4207966015024
 30
0.0
 10
743.2060283179377
 20
-528.4207966015274
 30
0.0
 10
743.2060283179377
 20
-528.4207966015274
 30
0.0
 10
743.2060283179377
 20
-528.4207966015274
 30
0.0
 10
743.0766295378851
 20
-528.4207966015698
 30
0.0
 10
743.0766295378851
 20
-528.4207966015698
 30
0.0
 10
743.0766295378851
 20
-528.4207966015698
 30
0.0
 10
748.9150201181792
 20
-528.4207966026177
 30
0.0
 10
748.9150201181792
 20
-528.4207966026177
 30
0.0
 10
750.5528380641485
 20
-528.4207966028429
 30
0.0
 10
751.8805518413947
 20
-529.748510380442
 30
0.0
 10
751.8805518411758
 20
-531.3863283264145
 30
0.0
  0
SPLINE
  5
95
330
1F
100
AcDbEntity
  8
Layer 1
 62
   250
420
  2301728
370
    35
100
AcDbSpline
210
0.0
220
0.0
230
1.0
 70
     8
 71
     3
 72
    32
 73
    28
 74
     0
 42
0.0000000001
 43
0.0000000001
 12
1.0
 22
0.0
 32
0.0
 13
1.0
 23
0.0
 33
0.0
 40
0.0
 40
0.0
 40
0.0
 40
0.0
 40
1.0
 40
1.0
 40
1.0
 40
2.0
 40
2.0
 40
2.0
 40
3.0
 40
3.0
 40
3.0
 40
4.0
 40
4.0
 40
4.0
 40
5.0
 40
5.0
 40
5.0
 40
6.0
 40
6.0
 40
6.0
 40
7.0
 40
7.0
 40
7.0
 40
8.0
 40
8.0
 40
8.0
 40
9.0
 40
9.0
 40
9.0
 40
9.0
 10
734.4879142251172
 20
-539.0670677660709
 30
0.0
 10
734.4879142249516
 20
-540.004828883001
 30
0.0
 10
733.7277086366704
 20
-540.7650344710069
 30
0.0
 10
732.789947519737
 20
-540.7650344708406
 30
0.0
 10
732.789947519737
 20
-540.7650344708406
 30
0.0
 10
731.3071755215351
 20
-540.7650344705731
 30
0.0
 10
731.3071755215351
 20
-540.7650344705731
 30
0.0
 10
729.6693575768747
 20
-540.7650344702798
 30
0.0
 10
728.3416438002287
 20
-539.4373206946534
 30
0.0
 10
728.3416437986803
 20
-537.7995027499853
 30
0.0
 10
728.3416437986803
 20
-537.7995027499853
 30
0.0
 10
728.3416437934163
 20
-531.3863283222519
 30
0.0
 10
728.3416437934163
 20
-531.3863283222519
 30
0.0
 10
728.3416437918679
 20
-529.7485103768189
 30
0.0
 10
729.6693575685744
 20
-528.4207965990998
 30
0.0
 10
731.3071755140035
 20
-528.4207965993893
 30
0.0
 10
731.3071755140035
 20
-528.4207965993893
 30
0.0
 10
731.436574294063
 20
-528.4207965994175
 30
0.0
 10
731.436574294063
 20
-528.4207965994175
 30
0.0
 10
731.436574294063
 20
-528.4207965994175
 30
0.0
 10
731.3071755140035
 20
-528.4207965994599
 30
0.0
 10
731.3071755140035
 20
-528.4207965994599
 30
0.0
 10
731.3071755140035
 20
-528.4207965994599
 30
0.0
 10
737.1455660943013
 20
-528.4207966005039
 30
0.0
 10
737.1455660943013
 20
-528.4207966005039
 30
0.0
 10
738.7833840402707
 20
-528.4207966007298
 30
0.0
 10
740.1110978175168
 20
-529.7485103783326
 30
0.0
 10
740.1110978172942
 20
-531.3863283243014
 30
0.0
  0
SPLINE
  5
96
330
1F
100
AcDbEntity
  8
Layer 1
 62
   250
420
  2301728
370
    35
100
AcDbSpline
210
0.0
220
0.0
230
1.0
 70
     8
 71
     3
 72
    32
 73
    28
 74
     0
 42
0.0000000001
 43
0.0000000001
 12
1.0
 22
0.0
 32
0.0
 13
1.0
 23
0.0
 33
0.0
 40
0.0
 40
0.0
 40
0.0
 40
0.0
 40
1.0
 40
1.0
 40
1.0
 40
2.0
 40
2.0
 40
2.0
 40
3.0
 40
3.0
 40
3.0
 40
4.0
 40
4.0
 40
4.0
 40
5.0
 40
5.0
 40
5.0
 40
6.0
 40
6.0
 40
6.0
 40
7.0
 40
7.0
 40
7.0
 40
8.0
 40
8.0
 40
8.0
 40
9.0
 40
9.0
 40
9.0
 40
9.0
 10
722.7184602012394
 20
-539.0670677639578
 30
0.0
 10
722.7184602010699
 20
-540.0048288808916
 30
0.0
 10
721.9582546127925
 20
-540.7650344688969
 30
0.0
 10
721.0204934958592
 20
-540.7650344687275
 30
0.0
 10
721.0204934958592
 20
-540.7650344687275
 30
0.0
 10
719.5377214976604
 20
-540.76503446846
 30
0.0
 10
719.5377214976604
 20
-540.76503446846
 30
0.0
 10
717.8999035529931
 20
-540.7650344681667
 30
0.0
 10
716.5721897763508
 20
-539.4373206925403
 30
0.0
 10
716.5721897747978
 20
-537.7995027478793
 30
0.0
 10
716.5721897747978
 20
-537.7995027478793
 30
0.0
 10
716.5721897695386
 20
-531.3863283201387
 30
0.0
 10
716.5721897695386
 20
-531.3863283201387
 30
0.0
 10
716.5721897679863
 20
-529.7485103747097
 30
0.0
 10
717.8999035446959
 20
-528.4207965969874
 30
0.0
 10
719.5377214901256
 20
-528.4207965972762
 30
0.0
 10
719.5377214901256
 20
-528.4207965972762
 30
0.0
 10
719.6671202701853
 20
-528.4207965973012
 30
0.0
 10
719.6671202701853
 20
-528.4207965973012
 30
0.0
 10
719.6671202701853
 20
-528.4207965973012
 30
0.0
 10
719.5377214901256
 20
-528.4207965973435
 30
0.0
 10
719.5377214901256
 20
-528.4207965973435
 30
0.0
 10
719.5377214901256
 20
-528.4207965973435
 30
0.0
 10
725.3761120704235
 20
-528.4207965983915
 30
0.0
 10
725.3761120704235
 20
-528.4207965983915
 30
0.0
 10
727.0139300163922
 20
-528.4207965986167
 30
0.0
 10
728.341643793639
 20
-529.7485103762195
 30
0.0
 10
728.3416437934163
 20
-531.3863283221851
 30
0.0
  0
SPLINE
  5
97
330
1F
100
AcDbEntity
  8
Layer 1
 62
   250
420
  2301728
370
    35
100
AcDbSpline
210
0.0
220
0.0
230
1.0
 70
     8
 71
     3
 72
    53
 73
    49
 74
     0
 42
0.0000000001
 43
0.0000000001
 12
1.0
 22
0.0
 32
0.0
 13
1.0
 23
0.0
 33
0.0
 40
0.0
 40
0.0
 40
0.0
 40
0.0
 40
1.0
 40
1.0
 40
1.0
 40
2.0
 40
2.0
 40
2.0
 40
3.0
 40
3.0
 40
3.0
 40
4.0
 40
4.0
 40
4.0
 40
5.0
 40
5.0
 40
5.0
 40
6.0
 40
6.0
 40
6.0
 40
7.0
 40
7.0
 40
7.0
 40
8.0
 40
8.0
 40
8.0
 40
9.0
 40
9.0
 40
9.0
 40
10.0
 40
10.0
 40
10.0
 40
11.0
 40
11.0
 40
11.0
 40
12.0
 40
12.0
 40
12.0
 40
13.0
 40
13.0
 40
13.0
 40
14.0
 40
14.0
 40
14.0
 40
15.0
 40
15.0
 40
15.0
 40
16.0
 40
16.0
 40
16.0
 40
16.0
 10
140.0182116717343
 20
-542.7154202301555
 30
0.0
 10
140.0182116718186
 20
-541.7776591132215
 30
0.0
 10
140.7784172600296
 20
-541.0174535251488
 30
0.0
 10
141.7161783769639
 20
-541.0174535252335
 30
0.0
 10
141.7161783769639
 20
-541.0174535252335
 30
0.0
 10
143.198950375162
 20
-541.0174535253676
 30
0.0
 10
143.198950375162
 20
-541.0174535253676
 30
0.0
 10
144.8367683198281
 20
-541.0174535255127
 30
0.0
 10
146.1644820965917
 20
-542.345167301019
 30
0.0
 10
146.1643971067705
 20
-543.982980478206
 30
0.0
 10
146.1643971067705
 20
-543.982980478206
 30
0.0
 10
146.1643971067698
 20
-551.101753534152
 30
0.0
 10
146.1643971067698
 20
-551.101753534152
 30
0.0
 10
146.1643971067705
 20
-552.7395519278397
 30
0.0
 10
144.8368295615294
 20
-553.3617361724758
 30
0.0
 10
143.1988589130674
 20
-553.3617361724758
 30
0.0
 10
143.1988589130674
 20
-553.3617361724758
 30
0.0
 10
143.0694955775963
 20
-553.3617361724758
 30
0.0
 10
143.0694955775963
 20
-553.3617361724758
 30
0.0
 10
143.0694955775963
 20
-553.3617361724758
 30
0.0
 10
137.3606278489887
 20
-553.3617361724758
 30
0.0
 10
137.3606278489887
 20
-553.3617361724758
 30
0.0
 10
137.3606278489887
 20
-553.3617361724758
 30
0.0
 10
137.3216982700048
 20
-553.3536401980855
 30
0.0
 10
137.3216982700048
 20
-553.3536401980855
 30
0.0
 10
137.3216982700048
 20
-553.3536401980855
 30
0.0
 10
137.3606278489881
 20
-553.3536401980855
 30
0.0
 10
137.3606278489881
 20
-553.3536401980855
 30
0.0
 10
134.0753847942539
 20
-553.3536401980855
 30
0.0
 10
131.4123259841564
 20
-550.5107474036573
 30
0.0
 10
131.4123259841564
 20
-547.003640199673
 30
0.0
 10
131.4123259841564
 20
-547.003640199673
 30
0.0
 10
131.4123259841564
 20
-534.0692014550767
 30
0.0
 10
131.4123259841564
 20
-534.0692014550767
 30
0.0
 10
131.4123259841564
 20
-532.2479517267994
 30
0.0
 10
132.1344179978647
 20
-530.6103255878859
 30
0.0
 10
133.2850798899382
 20
-529.4524289952934
 30
0.0
 10
133.2850798899382
 20
-529.4524289952934
 30
0.0
 10
133.5022285986506
 20
-529.2438930252894
 30
0.0
 10
133.5022285986506
 20
-529.2438930252894
 30
0.0
 10
134.5311063653207
 20
-528.335421345829
 30
0.0
 10
135.9210947004765
 20
-527.7192014566642
 30
0.0
 10
137.3606278489881
 20
-527.7192014566642
 30
0.0
 10
137.3606278489881
 20
-527.7192014566642
 30
0.0
 10
713.6066631324469
 20
-527.7247136094406
 30
0.0
 10
713.6066631324469
 20
-527.7247136094406
 30
0.0
 10
715.2444615261347
 20
-527.7247136094406
 30
0.0
 10
716.57220132615
 20
-529.0524534094559
 30
0.0
 10
716.57220132615
 20
-530.6902518031437
 30
0.0
  0
SPLINE
  5
98
330
1F
100
AcDbEntity
  8
Layer 1
 62
   250
420
  2301728
370
    35
100
AcDbSpline
210
0.0
220
0.0
230
1.0
 70
     8
 71
     3
 72
    56
 73
    52
 74
     0
 42
0.0000000001
 43
0.0000000001
 12
1.0
 22
0.0
 32
0.0
 13
1.0
 23
0.0
 33
0.0
 40
0.0
 40
0.0
 40
0.0
 40
0.0
 40
1.0
 40
1.0
 40
1.0
 40
2.0
 40
2.0
 40
2.0
 40
3.0
 40
3.0
 40
3.0
 40
4.0
 40
4.0
 40
4.0
 40
5.0
 40
5.0
 40
5.0
 40
6.0
 40
6.0
 40
6.0
 40
7.0
 40
7.0
 40
7.0
 40
8.0
 40
8.0
 40
8.0
 40
9.0
 40
9.0
 40
9.0
 40
10.0
 40
10.0
 40
10.0
 40
11.0
 40
11.0
 40
11.0
 40
12.0
 40
12.0
 40
12.0
 40
13.0
 40
13.0
 40
13.0
 40
14.0
 40
14.0
 40
14.0
 40
15.0
 40
15.0
 40
15.0
 40
16.0
 40
16.0
 40
16.0
 40
17.0
 40
17.0
 40
17.0
 40
17.0
 10
816.8740923922709
 20
-539.0670677808665
 30
0.0
 10
816.8740923921047
 20
-540.0048288977998
 30
0.0
 10
816.1138868038241
 20
-540.765034485809
 30
0.0
 10
815.1761256868908
 20
-540.7650344856363
 30
0.0
 10
815.1761256868908
 20
-540.7650344856363
 30
0.0
 10
813.693353688692
 20
-540.765034485372
 30
0.0
 10
813.693353688692
 20
-540.765034485372
 30
0.0
 10
812.0555357440285
 20
-540.7650344850787
 30
0.0
 10
810.7278219673817
 20
-539.4373207094491
 30
0.0
 10
810.7278219658294
 20
-537.7995027647848
 30
0.0
 10
810.7278219658294
 20
-537.7995027647848
 30
0.0
 10
810.72782196057
 20
-531.3863283370513
 30
0.0
 10
810.72782196057
 20
-531.3863283370513
 30
0.0
 10
810.7278219590211
 20
-529.7485103916177
 30
0.0
 10
812.0555357357275
 20
-528.4207966138955
 30
0.0
 10
813.6933536811572
 20
-528.4207966141888
 30
0.0
 10
813.6933536811572
 20
-528.4207966141888
 30
0.0
 10
813.8227524612167
 20
-528.42079661421
 30
0.0
 10
813.8227524612167
 20
-528.42079661421
 30
0.0
 10
813.8227524612167
 20
-528.42079661421
 30
0.0
 10
813.6933536811572
 20
-528.4207966142517
 30
0.0
 10
813.6933536811572
 20
-528.4207966142517
 30
0.0
 10
813.6933536811572
 20
-528.4207966142517
 30
0.0
 10
819.5317442614551
 20
-528.4207966152995
 30
0.0
 10
819.5317442614551
 20
-528.4207966152995
 30
0.0
 10
819.5317442614551
 20
-528.4207966152995
 30
0.0
 10
819.5706742613371
 20
-528.4288318613943
 30
0.0
 10
819.5706742613371
 20
-528.4288318613943
 30
0.0
 10
819.5706742613371
 20
-528.4288318613943
 30
0.0
 10
819.5317442614551
 20
-528.4288319692884
 30
0.0
 10
819.5317442614551
 20
-528.4288319692884
 30
0.0
 10
822.8168863071835
 20
-528.428831969955
 30
0.0
 10
825.480020121711
 20
-531.2718238086246
 30
0.0
 10
825.4800201208428
 20
-534.7788319693371
 30
0.0
 10
825.4800201208428
 20
-534.7788319693371
 30
0.0
 10
825.4800201208428
 20
-534.7693044355203
 30
0.0
 10
825.4800201208428
 20
-534.7693044355203
 30
0.0
 10
825.4800201208428
 20
-534.7693044355203
 30
0.0
 10
825.4800201208428
 20
-547.7132292787411
 30
0.0
 10
825.4800201208428
 20
-547.7132292787411
 30
0.0
 10
825.4800461258781
 20
-549.5344790070185
 30
0.0
 10
824.7579541123179
 20
-551.1721051459955
 30
0.0
 10
823.6072922203504
 20
-552.3300017386938
 30
0.0
 10
823.6072922203504
 20
-552.3300017386938
 30
0.0
 10
823.3201435116791
 20
-552.6085377087045
 30
0.0
 10
823.3201435116791
 20
-552.6085377087045
 30
0.0
 10
822.2912657450902
 20
-553.517009388256
 30
0.0
 10
820.9712774099668
 20
-554.0632292775554
 30
0.0
 10
819.5317442614551
 20
-554.06322927879
 30
0.0
 10
819.5317442614551
 20
-554.06322927879
 30
0.0
 10
243.2467160129874
 20
-554.0672468464219
 30
0.0
 10
243.2467160129874
 20
-554.0672468464219
 30
0.0
  0
POLYLINE
  5
99
330
1F
100
AcDbEntity
  8
Layer 1
 62
   114
420
    37700
370
    35
100
AcDb2dPolyline
 66
     1
 10
0.0
 20
0.0
 30
0.0
  0
VERTEX
  5
9A
330
99
100
AcDbEntity
  8
Layer 1
 62
   114
420
    37700
370
    35
100
AcDbVertex
100
AcDb2dVertex
 10
131.4123259841564
 20
-514.3934810435304
 30
0.0
  0
VERTEX
  5
9B
330
99
100
AcDbEntity
  8
Layer 1
 62
   114
420
    37700
370
    35
100
AcDbVertex
100
AcDb2dVertex
 10
131.4123259841564
 20
-489.6990366052596
 30
0.0
  0
SEQEND
  5
9C
330
99
100
AcDbEntity
  8
Layer 1
 62
   114
420
    37700
370
    35
  0
POLYLINE
  5
9D
330
1F
100
AcDbEntity
  8
Layer 1
 62
   114
420
    37700
370
    35
100
AcDb2dPolyline
 66
     1
 10
0.0
 20
0.0
 30
0.0
  0
VERTEX
  5
9E
330
9D
100
AcDbEntity
  8
Layer 1
 62
   114
420
    37700
370
    35
100
AcDbVertex
100
AcDb2dVertex
 10
825.4800201215448
 20
-514.3934810435304
 30
0.0
  0
VERTEX
  5
9F
330
9D
100
AcDbEntity
  8
Layer 1
 62
   114
420
    37700
370
    35
100
AcDbVertex
100
AcDb2dVertex
 10
825.4800201215448
 20
-489.6990366052596
 30
0.0
  0
SEQEND
  5
A0
330
9D
100
AcDbEntity
  8
Layer 1
 62
   114
420
    37700
370
    35
  0
POLYLINE
  5
A1
330
1F
100
AcDbEntity
  8
Layer 1
  6
AI-Linetype-3
 62
   114
420
    37700
370
    35
100
AcDb2dPolyline
 66
     1
 10
0.0
 20
0.0
 30
0.0
  0
VERTEX
  5
A2
330
A1
100
AcDbEntity
  8
Layer 1
  6
AI-Linetype-3
 62
   114
420
    37700
370
    35
100
AcDbVertex
100
AcDb2dVertex
 10
131.4123259841567
 20
-502.046258824395
 30
0.0
  0
VERTEX
  5
A3
330
A1
100
AcDbEntity
  8
Layer 1
  6
AI-Linetype-3
 62
   114
420
    37700
370
    35
100
AcDbVertex
100
AcDb2dVertex
 10
825.4800201215448
 20
-502.046258824395
 30
0.0
  0
SEQEND
  5
A5
330
A1
100
AcDbEntity
  8
Layer 1
  6
AI-Linetype-3
 62
   114
420
    37700
370
    35
  0
MTEXT
  5
A6
330
1F
100
AcDbEntity
  8
Layer 1
 62
   114
420
    37700
100
AcDbMText
 10
459.7854888720227
 20
-497.1460542919461
 30
0.0
 40
8.239450220336987
 41
0.0
 46
0.0
 71
     7
 72
     1
  1
\fMyriad Pro|b0|i0|c0|p34;\W1;694mm
 73
     1
 44
1.0
  0
POLYLINE
  5
A7
330
1F
100
AcDbEntity
  8
Layer 1
 62
   114
420
    37700
370
    35
100
AcDb2dPolyline
 66
     1
 10
0.0
 20
0.0
 30
0.0
  0
VERTEX
  5
A8
330
A7
100
AcDbEntity
  8
Layer 1
 62
   114
420
    37700
370
    35
100
AcDbVertex
100
AcDb2dVertex
 10
831.9270143533846
 20
-527.719201457218
 30
0.0
  0
VERTEX
  5
A9
330
A7
100
AcDbEntity
  8
Layer 1
 62
   114
420
    37700
370
    35
100
AcDbVertex
100
AcDb2dVertex
 10
856.6214587916554
 20
-527.7192014561098
 30
0.0
  0
SEQEND
  5
AA
330
A7
100
AcDbEntity
  8
Layer 1
 62
   114
420
    37700
370
    35
  0
POLYLINE
  5
AB
330
1F
100
AcDbEntity
  8
Layer 1
 62
   114
420
    37700
370
    35
100
AcDb2dPolyline
 66
     1
 10
0.0
 20
0.0
 30
0.0
  0
VERTEX
  5
AC
330
AB
100
AcDbEntity
  8
Layer 1
 62
   114
420
    37700
370
    35
100
AcDbVertex
100
AcDb2dVertex
 10
831.9270143533846
 20
-554.0672468469756
 30
0.0
  0
VERTEX
  5
AD
330
AB
100
AcDbEntity
  8
Layer 1
 62
   114
420
    37700
370
    35
100
AcDbVertex
100
AcDb2dVertex
 10
856.6214587916554
 20
-554.0672468458674
 30
0.0
  0
SEQEND
  5
AE
330
AB
100
AcDbEntity
  8
Layer 1
 62
   114
420
    37700
370
    35
  0
POLYLINE
  5
AF
330
1F
100
AcDbEntity
  8
Layer 1
  6
AI-Linetype-4
 62
   114
420
    37700
370
    35
100
AcDb2dPolyline
 66
     1
 10
0.0
 20
0.0
 30
0.0
  0
VERTEX
  5
B0
330
AF
100
AcDbEntity
  8
Layer 1
  6
AI-Linetype-4
 62
   114
420
    37700
370
    35
100
AcDbVertex
100
AcDb2dVertex
 10
844.274236565648
 20
-528.4207965972762
 30
0.0
  0
VERTEX
  5
B1
330
AF
100
AcDbEntity
  8
Layer 1
  6
AI-Linetype-4
 62
   114
420
    37700
370
    35
100
AcDbVertex
100
AcDb2dVertex
 10
844.274236579392
 20
-554.0672468464219
 30
0.0
  0
SEQEND
  5
B3
330
AF
100
AcDbEntity
  8
Layer 1
  6
AI-Linetype-4
 62
   114
420
    37700
370
    35
  0
MTEXT
  5
B4
330
1F
100
AcDbEntity
  8
Layer 1
 62
   114
420
    37700
100
AcDbMText
 10
854.3767040236021
 20
-545.3200302456145
 30
0.0
 40
8.239450220336987
 41
0.0
 46
0.0
 71
     7
 72
     1
  1
\fMyriad Pro|b0|i0|c0|p34;\W1;25.6mm
 73
     1
 44
1.0
  0
POLYLINE
  5
B5
330
1F
100
AcDbEntity
  8
Layer 1
 62
   250
420
  2301728
370
    35
100
AcDb2dPolyline
 66
     1
 10
0.0
 20
0.0
 30
0.0
  0
VERTEX
  5
B6
330
B5
100
AcDbEntity
  8
Layer 1
 62
   250
420
  2301728
370
    35
100
AcDbVertex
100
AcDb2dVertex
 10
241.3729114997535
 20
-192.019006343213
 30
0.0
  0
VERTEX
  5
B7
330
B5
100
AcDbEntity
  8
Layer 1
 62
   250
420
  2301728
370
    35
100
AcDbVertex
100
AcDb2dVertex
 10
228.460616179908
 20
-180.5621953138012
 30
0.0
  0
SEQEND
  5
B8
330
B5
100
AcDbEntity
  8
Layer 1
 62
   250
420
  2301728
370
    35
  0
POLYLINE
  5
B9
330
1F
100
AcDbEntity
  8
Layer 1
 62
   250
420
  2301728
370
    35
100
AcDb2dPolyline
 66
     1
 10
0.0
 20
0.0
 30
0.0
  0
VERTEX
  5
BA
330
B9
100
AcDbEntity
  8
Layer 1
 62
   250
420
  2301728
370
    35
100
AcDbVertex
100
AcDb2dVertex
 10
213.6965206029673
 20
-147.4229084059005
 30
0.0
  0
VERTEX
  5
BB
330
B9
100
AcDbEntity
  8
Layer 1
 62
   250
420
  2301728
370
    35
100
AcDbVertex
100
AcDb2dVertex
 10
211.0887386568351
 20
-130.3587540842769
 30
0.0
  0
SEQEND
  5
BC
330
B9
100
AcDbEntity
  8
Layer 1
 62
   250
420
  2301728
370
    35
  0
POLYLINE
  5
BD
330
1F
100
AcDbEntity
  8
Layer 1
 62
   250
420
  2301728
370
    35
100
AcDb2dPolyline
 66
     1
 10
0.0
 20
0.0
 30
0.0
  0
VERTEX
  5
BE
330
BD
100
AcDbEntity
  8
Layer 1
 62
   250
420
  2301728
370
    35
100
AcDbVertex
100
AcDb2dVertex
 10
328.1474670518369
 20
-192.3717841212061
 30
0.0
  0
VERTEX
  5
BF
330
BD
100
AcDbEntity
  8
Layer 1
 62
   250
420
  2301728
370
    35
100
AcDbVertex
100
AcDb2dVertex
 10
341.0597623722006
 20
-180.9149730923693
 30
0.0
  0
SEQEND
  5
C0
330
BD
100
AcDbEntity
  8
Layer 1
 62
   250
420
  2301728
370
    35
  0
POLYLINE
  5
C1
330
1F
100
AcDbEntity
  8
Layer 1
 62
   250
420
  2301728
370
    35
100
AcDb2dPolyline
 66
     1
 10
0.0
 20
0.0
 30
0.0
  0
VERTEX
  5
C2
330
C1
100
AcDbEntity
  8
Layer 1
 62
   250
420
  2301728
370
    35
100
AcDbVertex
100
AcDb2dVertex
 10
357.2349690613714
 20
-147.4229084074277
 30
0.0
  0
VERTEX
  5
C3
330
C1
100
AcDbEntity
  8
Layer 1
 62
   250
420
  2301728
370
    35
100
AcDbVertex
100
AcDb2dVertex
 10
359.8427510082697
 20
-130.3587540859219
 30
0.0
  0
SEQEND
  5
C4
330
C1
100
AcDbEntity
  8
Layer 1
 62
   250
420
  2301728
370
    35
  0
POLYLINE
  5
C5
330
1F
100
AcDbEntity
  8
Layer 1
 62
   250
420
  2301728
370
    35
100
AcDb2dPolyline
 66
     1
 10
0.0
 20
0.0
 30
0.0
  0
VERTEX
  5
C6
330
C5
100
AcDbEntity
  8
Layer 1
 62
   250
420
  2301728
370
    35
100
AcDbVertex
100
AcDb2dVertex
 10
409.7036232157722
 20
-240.2919513990408
 30
0.0
  0
VERTEX
  5
C7
330
C5
100
AcDbEntity
  8
Layer 1
 62
   250
420
  2301728
370
    35
100
AcDbVertex
100
AcDb2dVertex
 10
410.5638535756358
 20
-254.7850772086945
 30
0.0
  0
SEQEND
  5
C8
330
C5
100
AcDbEntity
  8
Layer 1
 62
   250
420
  2301728
370
    35
  0
POLYLINE
  5
C9
330
1F
100
AcDbEntity
  8
Layer 1
 62
   250
420
  2301728
370
    35
100
AcDb2dPolyline
 66
     1
 10
0.0
 20
0.0
 30
0.0
  0
VERTEX
  5
CA
330
C9
100
AcDbEntity
  8
Layer 1
 62
   250
420
  2301728
370
    35
100
AcDbVertex
100
AcDb2dVertex
 10
393.9108824519823
 20
-235.5216119336711
 30
0.0
  0
VERTEX
  5
CB
330
C9
100
AcDbEntity
  8
Layer 1
 62
   250
420
  2301728
370
    35
100
AcDbVertex
100
AcDb2dVertex
 10
395.5909099762018
 20
-262.2409287556428
 30
0.0
  0
SEQEND
  5
CC
330
C9
100
AcDbEntity
  8
Layer 1
 62
   250
420
  2301728
370
    35
  0
SPLINE
  5
CD
330
1F
100
AcDbEntity
  8
Layer 1
 62
   250
420
  2301728
370
    35
100
AcDbSpline
210
0.0
220
0.0
230
1.0
 70
     8
 71
     3
 72
    53
 73
    49
 74
     0
 42
0.0000000001
 43
0.0000000001
 12
1.0
 22
0.0
 32
0.0
 13
1.0
 23
0.0
 33
0.0
 40
0.0
 40
0.0
 40
0.0
 40
0.0
 40
1.0
 40
1.0
 40
1.0
 40
2.0
 40
2.0
 40
2.0
 40
3.0
 40
3.0
 40
3.0
 40
4.0
 40
4.0
 40
4.0
 40
5.0
 40
5.0
 40
5.0
 40
6.0
 40
6.0
 40
6.0
 40
7.0
 40
7.0
 40
7.0
 40
8.0
 40
8.0
 40
8.0
 40
9.0
 40
9.0
 40
9.0
 40
10.0
 40
10.0
 40
10.0
 40
11.0
 40
11.0
 40
11.0
 40
12.0
 40
12.0
 40
12.0
 40
13.0
 40
13.0
 40
13.0
 40
14.0
 40
14.0
 40
14.0
 40
15.0
 40
15.0
 40
15.0
 40
16.0
 40
16.0
 40
16.0
 40
16.0
 10
284.8602045707247
 20
-158.5432359563484
 30
0.0
 10
318.5973356386793
 20
-158.4534050915725
 30
0.0
 10
347.3745627365197
 20
-133.5722364780001
 30
0.0
 10
357.4009102546282
 20
-120.9608615625332
 30
0.0
 10
358.5867121206512
 20
-119.4694797269685
 30
0.0
 10
362.7530383457378
 20
-120.330753598281
 30
0.0
 10
362.7294394416638
 20
-122.2358914016241
 30
0.0
 10
362.7294394416638
 20
-122.2358914016241
 30
0.0
 10
362.7424446771225
 20
-122.2358914016241
 30
0.0
 10
362.7424446771225
 20
-122.2358914016241
 30
0.0
 10
362.7424446771225
 20
-202.8928975392299
 30
0.0
 10
297.2959226801343
 20
-207.6145731565391
 30
0.0
 10
297.2612994705075
 20
-207.617070850764
 30
0.0
 10
297.2612994705075
 20
-207.617070850764
 30
0.0
 10
297.2614286615898
 20
-207.617070850764
 30
0.0
 10
297.2614286615898
 20
-207.617070850764
 30
0.0
 10
297.2614286615898
 20
-207.617070850764
 30
0.0
 10
297.260911897267
 20
-207.617070850764
 30
0.0
 10
297.260911897267
 20
-207.617070850764
 30
0.0
 10
297.260911897267
 20
-207.617070850764
 30
0.0
 10
297.2618162348303
 20
-207.617070850764
 30
0.0
 10
297.2618162348303
 20
-207.617070850764
 30
0.0
 10
297.299238584542
 20
-207.6162526405888
 30
0.0
 10
315.9113238799075
 20
-207.2094299274737
 30
0.0
 10
341.345731764718
 20
-205.0175309886764
 30
0.0
 10
341.345731764718
 20
-205.0175309886764
 30
0.0
 10
341.3457233011521
 20
-205.0261359372197
 30
0.0
 10
341.3457233011521
 20
-205.0261359372197
 30
0.0
 10
341.3457233011521
 20
-205.0261359372197
 30
0.0
 10
341.7428680937462
 20
-199.2903098395296
 30
0.0
 10
341.7428680937462
 20
-199.2903098395296
 30
0.0
 10
341.7937315743026
 20
-198.2990996692722
 30
0.0
 10
342.5587805416818
 20
-197.7790168415586
 30
0.0
 10
343.5520340940099
 20
-197.4017839171275
 30
0.0
 10
343.5520340940099
 20
-197.4017839171275
 30
0.0
 10
347.6563149263723
 20
-196.4561294117127
 30
0.0
 10
347.6563149263723
 20
-196.4561294117127
 30
0.0
 10
348.3722480619453
 20
-196.291173497904
 30
0.0
 10
349.1238232183841
 20
-196.3946669190689
 30
0.0
 10
349.7685266438181
 20
-196.7469852429497
 30
0.0
 10
349.7685266438181
 20
-196.7469852429497
 30
0.0
 10
356.6394562048597
 20
-200.5018193123132
 30
0.0
 10
356.6394562048597
 20
-200.5018193123132
 30
0.0
 10
357.2222898772671
 20
-200.8203269771777
 30
0.0
 10
357.6089821009094
 20
-201.4073981022507
 30
0.0
 10
357.6714874669821
 20
-202.0686358064713
 30
0.0
 10
357.6714874669821
 20
-202.0686358064713
 30
0.0
 10
357.803990514511
 20
-203.4703716326179
 30
0.0
 10
357.803990514511
 20
-203.4703716326179
 30
0.0
  0
SPLINE
  5
CE
330
1F
100
AcDbEntity
  8
Layer 1
 62
   250
420
  2301728
370
    35
100
AcDbSpline
210
0.0
220
0.0
230
1.0
 70
     8
 71
     3
 72
    20
 73
    16
 74
     0
 42
0.0000000001
 43
0.0000000001
 12
1.0
 22
0.0
 32
0.0
 13
1.0
 23
0.0
 33
0.0
 40
0.0
 40
0.0
 40
0.0
 40
0.0
 40
1.0
 40
1.0
 40
1.0
 40
2.0
 40
2.0
 40
2.0
 40
3.0
 40
3.0
 40
3.0
 40
4.0
 40
4.0
 40
4.0
 40
5.0
 40
5.0
 40
5.0
 40
5.0
 10
284.785169305985
 20
-454.5050156675136
 30
0.0
 10
284.785169305985
 20
-454.5050156675136
 30
0.0
 10
320.928957952547
 20
-454.5050156675136
 30
0.0
 10
320.928957952547
 20
-454.5050156675136
 30
0.0
 10
387.7273784816393
 20
-454.5050156675136
 30
0.0
 10
435.6833175294357
 20
-396.9600354844172
 30
0.0
 10
435.6833175294357
 20
-326.8198723346371
 30
0.0
 10
435.6833175294357
 20
-326.8198723346371
 30
0.0
 10
435.8364520237551
 20
-195.2029276518295
 30
0.0
 10
435.8364520237551
 20
-195.2029276518295
 30
0.0
 10
435.8403277561779
 20
-191.8848700625963
 30
0.0
 10
432.673423731362
 20
-189.4876864965743
 30
0.0
 10
429.4794757069869
 20
-190.3864257812869
 30
0.0
 10
420.542984145634
 20
-192.9010009759708
 30
0.0
 10
412.477159766141
 20
-195.0510850683152
 30
0.0
 10
402.723663810465
 20
-196.8907660574386
 30
0.0
  0
SPLINE
  5
CF
330
1F
100
AcDbEntity
  8
Layer 1
 62
   250
420
  2301728
370
    35
100
AcDbSpline
210
0.0
220
0.0
230
1.0
 70
     8
 71
     3
 72
    35
 73
    31
 74
     0
 42
0.0000000001
 43
0.0000000001
 12
1.0
 22
0.0
 32
0.0
 13
1.0
 23
0.0
 33
0.0
 40
0.0
 40
0.0
 40
0.0
 40
0.0
 40
1.0
 40
1.0
 40
1.0
 40
2.0
 40
2.0
 40
2.0
 40
3.0
 40
3.0
 40
3.0
 40
4.0
 40
4.0
 40
4.0
 40
5.0
 40
5.0
 40
5.0
 40
6.0
 40
6.0
 40
6.0
 40
7.0
 40
7.0
 40
7.0
 40
8.0
 40
8.0
 40
8.0
 40
9.0
 40
9.0
 40
9.0
 40
10.0
 40
10.0
 40
10.0
 40
10.0
 10
349.7589133218611
 20
-204.2289055684098
 30
0.0
 10
363.8252812518292
 20
-202.8704182911868
 30
0.0
 10
379.4374204623359
 20
-200.9762186660112
 30
0.0
 10
394.8852286181961
 20
-198.3486012757182
 30
0.0
 10
394.8852286181961
 20
-198.3486012757182
 30
0.0
 10
394.9018085215039
 20
-198.4118157607372
 30
0.0
 10
394.9018085215039
 20
-198.4118157607372
 30
0.0
 10
394.9018085215039
 20
-198.4118157607372
 30
0.0
 10
394.9026098926961
 20
-198.4203833167061
 30
0.0
 10
394.9026098926961
 20
-198.4203833167061
 30
0.0
 10
394.9026098926961
 20
-198.4203833167061
 30
0.0
 10
394.7582032231104
 20
-192.6726383916944
 30
0.0
 10
394.7582032231104
 20
-192.6726383916944
 30
0.0
 10
394.7155598524807
 20
-191.6810405708947
 30
0.0
 10
395.4282693877611
 20
-191.0912684212526
 30
0.0
 10
396.3816140914182
 20
-190.6222362533906
 30
0.0
 10
396.3816140914182
 20
-190.6222362533906
 30
0.0
 10
400.3786860296864
 20
-189.2945316496333
 30
0.0
 10
400.3786860296864
 20
-189.2945316496333
 30
0.0
 10
401.0759181058421
 20
-189.0629325561742
 30
0.0
 10
401.8338973364384
 20
-189.0952371995689
 30
0.0
 10
402.5088956284615
 20
-189.3853199703021
 30
0.0
 10
402.5088956284615
 20
-189.3853199703021
 30
0.0
 10
409.7026928619514
 20
-192.476878361256
 30
0.0
 10
409.7026928619514
 20
-192.476878361256
 30
0.0
 10
410.3129141170084
 20
-192.7391229839754
 30
0.0
 10
410.753138460254
 20
-193.2871977136782
 30
0.0
 10
410.8775943903422
 20
-193.9396185469845
 30
0.0
 10
410.8775943903422
 20
-193.9396185469845
 30
0.0
 10
411.1414243789666
 20
-195.3226637816045
 30
0.0
 10
411.1414243789666
 20
-195.3226637816045
 30
0.0
  0
POLYLINE
  5
D0
330
1F
100
AcDbEntity
  8
Layer 1
 62
   250
420
  2301728
370
    35
100
AcDb2dPolyline
 66
     1
 10
0.0
 20
0.0
 30
0.0
  0
VERTEX
  5
D1
330
D0
100
AcDbEntity
  8
Layer 1
 62
   250
420
  2301728
370
    35
100
AcDbVertex
100
AcDb2dVertex
 10
297.2618147274709
 20
-209.8170708502135
 30
0.0
  0
VERTEX
  5
D2
330
D0
100
AcDbEntity
  8
Layer 1
 62
   250
420
  2301728
370
    35
100
AcDbVertex
100
AcDb2dVertex
 10
297.2618177421974
 20
-207.617070850764
 30
0.0
  0
SEQEND
  5
D3
330
D0
100
AcDbEntity
  8
Layer 1
 62
   250
420
  2301728
370
    35
  0
POLYLINE
  5
D4
330
1F
100
AcDbEntity
  8
Layer 1
 62
   250
420
  2301728
370
    35
100
AcDb2dPolyline
 66
     1
 10
0.0
 20
0.0
 30
0.0
  0
VERTEX
  5
D5
330
D4
100
AcDbEntity
  8
Layer 1
 62
   250
420
  2301728
370
    35
100
AcDbVertex
100
AcDb2dVertex
 10
159.4673148182285
 20
-240.2919513966382
 30
0.0
  0
VERTEX
  5
D6
330
D4
100
AcDbEntity
  8
Layer 1
 62
   250
420
  2301728
370
    35
100
AcDbVertex
100
AcDb2dVertex
 10
158.6070844577263
 20
-254.7850772062531
 30
0.0
  0
SEQEND
  5
D7
330
D4
100
AcDbEntity
  8
Layer 1
 62
   250
420
  2301728
370
    35
  0
POLYLINE
  5
D8
330
1F
100
AcDbEntity
  8
Layer 1
 62
   250
420
  2301728
370
    35
100
AcDb2dPolyline
 66
     1
 10
0.0
 20
0.0
 30
0.0
  0
VERTEX
  5
D9
330
D8
100
AcDbEntity
  8
Layer 1
 62
   250
420
  2301728
370
    35
100
AcDbVertex
100
AcDb2dVertex
 10
175.2600555822443
 20
-235.5216119319815
 30
0.0
  0
VERTEX
  5
DA
330
D8
100
AcDbEntity
  8
Layer 1
 62
   250
420
  2301728
370
    35
100
AcDbVertex
100
AcDb2dVertex
 10
173.5800280568251
 20
-262.2409287538756
 30
0.0
  0
SEQEND
  5
DB
330
D8
100
AcDbEntity
  8
Layer 1
 62
   250
420
  2301728
370
    35
  0
SPLINE
  5
DC
330
1F
100
AcDbEntity
  8
Layer 1
 62
   250
420
  2301728
370
    35
100
AcDbSpline
210
0.0
220
0.0
230
1.0
 70
     8
 71
     3
 72
    53
 73
    49
 74
     0
 42
0.0000000001
 43
0.0000000001
 12
1.0
 22
0.0
 32
0.0
 13
1.0
 23
0.0
 33
0.0
 40
0.0
 40
0.0
 40
0.0
 40
0.0
 40
1.0
 40
1.0
 40
1.0
 40
2.0
 40
2.0
 40
2.0
 40
3.0
 40
3.0
 40
3.0
 40
4.0
 40
4.0
 40
4.0
 40
5.0
 40
5.0
 40
5.0
 40
6.0
 40
6.0
 40
6.0
 40
7.0
 40
7.0
 40
7.0
 40
8.0
 40
8.0
 40
8.0
 40
9.0
 40
9.0
 40
9.0
 40
10.0
 40
10.0
 40
10.0
 40
11.0
 40
11.0
 40
11.0
 40
12.0
 40
12.0
 40
12.0
 40
13.0
 40
13.0
 40
13.0
 40
14.0
 40
14.0
 40
14.0
 40
15.0
 40
15.0
 40
15.0
 40
16.0
 40
16.0
 40
16.0
 40
16.0
 10
284.3107334669587
 20
-158.5432359597809
 30
0.0
 10
250.5736023990079
 20
-158.4534050934883
 30
0.0
 10
221.7963753022856
 20
-133.5722364786232
 30
0.0
 10
211.7700277847419
 20
-120.9608615627061
 30
0.0
 10
210.584225918786
 20
-119.4694797270882
 30
0.0
 10
206.4178996936602
 20
-120.3307535982136
 30
0.0
 10
206.441498597646
 20
-122.2358914015577
 30
0.0
 10
206.441498597646
 20
-122.2358914015577
 30
0.0
 10
206.4284933621907
 20
-122.2358914015574
 30
0.0
 10
206.4284933621907
 20
-122.2358914015574
 30
0.0
 10
206.4284933585716
 20
-202.8928975391626
 30
0.0
 10
271.8750153553439
 20
-207.6145731594107
 30
0.0
 10
271.9096385649707
 20
-207.6170708536391
 30
0.0
 10
271.9096385649707
 20
-207.6170708536391
 30
0.0
 10
271.9095093738887
 20
-207.6170708536391
 30
0.0
 10
271.9095093738887
 20
-207.6170708536391
 30
0.0
 10
271.9095093738887
 20
-207.6170708536391
 30
0.0
 10
271.9100261382115
 20
-207.6170708536391
 30
0.0
 10
271.9100261382115
 20
-207.6170708536391
 30
0.0
 10
271.9100261382115
 20
-207.6170708536391
 30
0.0
 10
271.9091218006479
 20
-207.6170708536391
 30
0.0
 10
271.9091218006479
 20
-207.6170708536391
 30
0.0
 10
271.8716994509368
 20
-207.6162526434569
 30
0.0
 10
253.259614155588
 20
-207.2094299295092
 30
0.0
 10
227.8252062708772
 20
-205.0175309895684
 30
0.0
 10
227.8252062708772
 20
-205.0175309895684
 30
0.0
 10
227.8252147344429
 20
-205.0261359381123
 30
0.0
 10
227.8252147344429
 20
-205.0261359381123
 30
0.0
 10
227.8252147344429
 20
-205.0261359381123
 30
0.0
 10
227.42806994211
 20
-199.2903098404045
 30
0.0
 10
227.42806994211
 20
-199.2903098404045
 30
0.0
 10
227.3772064615921
 20
-198.2990996701472
 30
0.0
 10
226.6121574942373
 20
-197.7790168423982
 30
0.0
 10
225.6189039419265
 20
-197.4017839179213
 30
0.0
 10
225.6189039419265
 20
-197.4017839179213
 30
0.0
 10
221.5146231096065
 20
-196.4561294123229
 30
0.0
 10
221.5146231096065
 20
-196.4561294123229
 30
0.0
 10
220.7986899740443
 20
-196.2911734984822
 30
0.0
 10
220.0471148175985
 20
-196.3946669196127
 30
0.0
 10
219.4024113921506
 20
-196.7469852434682
 30
0.0
 10
219.4024113921506
 20
-196.7469852434682
 30
0.0
 10
212.5314818309409
 20
-200.5018193125215
 30
0.0
 10
212.5314818309409
 20
-200.5018193125215
 30
0.0
 10
211.9486481585184
 20
-200.8203269773577
 30
0.0
 10
211.5619559348479
 20
-201.4073981024166
 30
0.0
 10
211.499450568747
 20
-202.0686358066301
 30
0.0
 10
211.499450568747
 20
-202.0686358066301
 30
0.0
 10
211.3669475211545
 20
-203.4703716327732
 30
0.0
 10
211.3669475211545
 20
-203.4703716327732
 30
0.0
  0
SPLINE
  5
DD
330
1F
100
AcDbEntity
  8
Layer 1
 62
   250
420
  2301728
370
    35
100
AcDbSpline
210
0.0
220
0.0
230
1.0
 70
     8
 71
     3
 72
    20
 73
    16
 74
     0
 42
0.0000000001
 43
0.0000000001
 12
1.0
 22
0.0
 32
0.0
 13
1.0
 23
0.0
 33
0.0
 40
0.0
 40
0.0
 40
0.0
 40
0.0
 40
1.0
 40
1.0
 40
1.0
 40
2.0
 40
2.0
 40
2.0
 40
3.0
 40
3.0
 40
3.0
 40
4.0
 40
4.0
 40
4.0
 40
5.0
 40
5.0
 40
5.0
 40
5.0
 10
284.3857687184085
 20
-454.5050156709358
 30
0.0
 10
284.3857687184085
 20
-454.5050156709358
 30
0.0
 10
247.9419800719221
 20
-454.5050156693129
 30
0.0
 10
247.9419800719221
 20
-454.5050156693129
 30
0.0
 10
181.1435595428293
 20
-454.5050156663143
 30
0.0
 10
133.1876204976157
 20
-396.9600354809954
 30
0.0
 10
133.1876205007645
 20
-326.8198723312149
 30
0.0
 10
133.1876205007645
 20
-326.8198723312149
 30
0.0
 10
133.0344860123545
 20
-195.2029276484003
 30
0.0
 10
133.0344860123545
 20
-195.2029276484003
 30
0.0
 10
133.0306102800825
 20
-191.8848700591678
 30
0.0
 10
136.1975143050059
 20
-189.4876864932862
 30
0.0
 10
139.3914623293422
 20
-190.3864257781436
 30
0.0
 10
148.3279538905786
 20
-192.9010009732301
 30
0.0
 10
156.3937782699763
 20
-195.0510850660044
 30
0.0
 10
166.1472742255712
 20
-196.8907660555655
 30
0.0
  0
SPLINE
  5
DE
330
1F
100
AcDbEntity
  8
Layer 1
 62
   250
420
  2301728
370
    35
100
AcDbSpline
210
0.0
220
0.0
230
1.0
 70
     8
 71
     3
 72
    35
 73
    31
 74
     0
 42
0.0000000001
 43
0.0000000001
 12
1.0
 22
0.0
 32
0.0
 13
1.0
 23
0.0
 33
0.0
 40
0.0
 40
0.0
 40
0.0
 40
0.0
 40
1.0
 40
1.0
 40
1.0
 40
2.0
 40
2.0
 40
2.0
 40
3.0
 40
3.0
 40
3.0
 40
4.0
 40
4.0
 40
4.0
 40
5.0
 40
5.0
 40
5.0
 40
6.0
 40
6.0
 40
6.0
 40
7.0
 40
7.0
 40
7.0
 40
8.0
 40
8.0
 40
8.0
 40
9.0
 40
9.0
 40
9.0
 40
10.0
 40
10.0
 40
10.0
 40
10.0
 10
219.4120247137698
 20
-204.2289055689255
 30
0.0
 10
205.3456567838646
 20
-202.8704182910738
 30
0.0
 10
189.7335175734426
 20
-200.9762186651924
 30
0.0
 10
174.2857094176989
 20
-198.3486012742083
 30
0.0
 10
174.2857094176989
 20
-198.3486012742083
 30
0.0
 10
174.2691295143878
 20
-198.4118157592272
 30
0.0
 10
174.2691295143878
 20
-198.4118157592272
 30
0.0
 10
174.2691295143878
 20
-198.4118157592272
 30
0.0
 10
174.2683281431988
 20
-198.4203833151961
 30
0.0
 10
174.2683281431988
 20
-198.4203833151961
 30
0.0
 10
174.2683281431988
 20
-198.4203833151961
 30
0.0
 10
174.4127348130387
 20
-192.6726383901877
 30
0.0
 10
174.4127348130387
 20
-192.6726383901877
 30
0.0
 10
174.4553781837143
 20
-191.6810405693918
 30
0.0
 10
173.7426686484624
 20
-191.0912684197179
 30
0.0
 10
172.7893239448223
 20
-190.6222362518108
 30
0.0
 10
172.7893239448223
 20
-190.6222362518108
 30
0.0
 10
168.792252006618
 20
-189.2945316478767
 30
0.0
 10
168.792252006618
 20
-189.2945316478767
 30
0.0
 10
168.0950199304732
 20
-189.0629325543858
 30
0.0
 10
167.337040699873
 20
-189.0952371977487
 30
0.0
 10
166.6620424078359
 20
-189.3853199684498
 30
0.0
 10
166.6620424078359
 20
-189.3853199684498
 30
0.0
 10
159.4682451742083
 20
-192.4768783590794
 30
0.0
 10
159.4682451742083
 20
-192.4768783590794
 30
0.0
 10
158.858023919141
 20
-192.7391229817734
 30
0.0
 10
158.41779957587
 20
-193.2871977114556
 30
0.0
 10
158.2933436457504
 20
-193.9396185447585
 30
0.0
 10
158.2933436457504
 20
-193.9396185447585
 30
0.0
 10
158.0295136570625
 20
-195.3226637793644
 30
0.0
 10
158.0295136570625
 20
-195.3226637793644
 30
0.0
  0
POLYLINE
  5
DF
330
1F
100
AcDbEntity
  8
Layer 1
 62
   250
420
  2301728
370
    35
100
AcDb2dPolyline
 66
     1
 10
0.0
 20
0.0
 30
0.0
  0
VERTEX
  5
E0
330
DF
100
AcDbEntity
  8
Layer 1
 62
   250
420
  2301728
370
    35
100
AcDbVertex
100
AcDb2dVertex
 10
271.9091233079084
 20
-209.8170708530851
 30
0.0
  0
VERTEX
  5
E1
330
DF
100
AcDbEntity
  8
Layer 1
 62
   250
420
  2301728
370
    35
100
AcDbVertex
100
AcDb2dVertex
 10
271.9091202932814
 20
-207.6170708536391
 30
0.0
  0
SEQEND
  5
E2
330
DF
100
AcDbEntity
  8
Layer 1
 62
   250
420
  2301728
370
    35
  0
POLYLINE
  5
E3
330
1F
100
AcDbEntity
  8
Layer 1
 62
   250
420
  2301728
370
    35
100
AcDb2dPolyline
 66
     1
 10
0.0
 20
0.0
 30
0.0
  0
VERTEX
  5
E4
330
E3
100
AcDbEntity
  8
Layer 1
 62
   250
420
  2301728
370
    35
100
AcDbVertex
100
AcDb2dVertex
 10
654.7524461119436
 20
-192.019006343213
 30
0.0
  0
VERTEX
  5
E5
330
E3
100
AcDbEntity
  8
Layer 1
 62
   250
420
  2301728
370
    35
100
AcDbVertex
100
AcDb2dVertex
 10
641.8401507920992
 20
-180.5621953138012
 30
0.0
  0
SEQEND
  5
E6
330
E3
100
AcDbEntity
  8
Layer 1
 62
   250
420
  2301728
370
    35
  0
POLYLINE
  5
E7
330
1F
100
AcDbEntity
  8
Layer 1
 62
   250
420
  2301728
370
    35
100
AcDb2dPolyline
 66
     1
 10
0.0
 20
0.0
 30
0.0
  0
VERTEX
  5
E8
330
E7
100
AcDbEntity
  8
Layer 1
 62
   250
420
  2301728
370
    35
100
AcDbVertex
100
AcDb2dVertex
 10
627.0760552151585
 20
-147.4229084059005
 30
0.0
  0
VERTEX
  5
E9
330
E7
100
AcDbEntity
  8
Layer 1
 62
   250
420
  2301728
370
    35
100
AcDbVertex
100
AcDb2dVertex
 10
624.4682732690256
 20
-130.3587540842769
 30
0.0
  0
SEQEND
  5
EA
330
E7
100
AcDbEntity
  8
Layer 1
 62
   250
420
  2301728
370
    35
  0
POLYLINE
  5
EB
330
1F
100
AcDbEntity
  8
Layer 1
 62
   250
420
  2301728
370
    35
100
AcDb2dPolyline
 66
     1
 10
0.0
 20
0.0
 30
0.0
  0
VERTEX
  5
EC
330
EB
100
AcDbEntity
  8
Layer 1
 62
   250
420
  2301728
370
    35
100
AcDbVertex
100
AcDb2dVertex
 10
741.527001664028
 20
-192.3717841212061
 30
0.0
  0
VERTEX
  5
ED
330
EB
100
AcDbEntity
  8
Layer 1
 62
   250
420
  2301728
370
    35
100
AcDbVertex
100
AcDb2dVertex
 10
754.4392969843917
 20
-180.9149730923693
 30
0.0
  0
SEQEND
  5
EE
330
EB
100
AcDbEntity
  8
Layer 1
 62
   250
420
  2301728
370
    35
  0
POLYLINE
  5
EF
330
1F
100
AcDbEntity
  8
Layer 1
 62
   250
420
  2301728
370
    35
100
AcDb2dPolyline
 66
     1
 10
0.0
 20
0.0
 30
0.0
  0
VERTEX
  5
F0
330
EF
100
AcDbEntity
  8
Layer 1
 62
   250
420
  2301728
370
    35
100
AcDbVertex
100
AcDb2dVertex
 10
770.6145036735616
 20
-147.4229084074277
 30
0.0
  0
VERTEX
  5
F1
330
EF
100
AcDbEntity
  8
Layer 1
 62
   250
420
  2301728
370
    35
100
AcDbVertex
100
AcDb2dVertex
 10
773.2222856204598
 20
-130.3587540859219
 30
0.0
  0
SEQEND
  5
F2
330
EF
100
AcDbEntity
  8
Layer 1
 62
   250
420
  2301728
370
    35
  0
POLYLINE
  5
F3
330
1F
100
AcDbEntity
  8
Layer 1
 62
   250
420
  2301728
370
    35
100
AcDb2dPolyline
 66
     1
 10
0.0
 20
0.0
 30
0.0
  0
VERTEX
  5
F4
330
F3
100
AcDbEntity
  8
Layer 1
 62
   250
420
  2301728
370
    35
100
AcDbVertex
100
AcDb2dVertex
 10
823.083157827962
 20
-240.2919513990408
 30
0.0
  0
VERTEX
  5
F5
330
F3
100
AcDbEntity
  8
Layer 1
 62
   250
420
  2301728
370
    35
100
AcDbVertex
100
AcDb2dVertex
 10
823.943388187826
 20
-254.7850772086945
 30
0.0
  0
SEQEND
  5
F6
330
F3
100
AcDbEntity
  8
Layer 1
 62
   250
420
  2301728
370
    35
  0
POLYLINE
  5
F7
330
1F
100
AcDbEntity
  8
Layer 1
 62
   250
420
  2301728
370
    35
100
AcDb2dPolyline
 66
     1
 10
0.0
 20
0.0
 30
0.0
  0
VERTEX
  5
F8
330
F7
100
AcDbEntity
  8
Layer 1
 62
   250
420
  2301728
370
    35
100
AcDbVertex
100
AcDb2dVertex
 10
807.2904170641724
 20
-235.5216119336711
 30
0.0
  0
VERTEX
  5
F9
330
F7
100
AcDbEntity
  8
Layer 1
 62
   250
420
  2301728
370
    35
100
AcDbVertex
100
AcDb2dVertex
 10
808.970444588392
 20
-262.2409287556428
 30
0.0
  0
SEQEND
  5
FA
330
F7
100
AcDbEntity
  8
Layer 1
 62
   250
420
  2301728
370
    35
  0
SPLINE
  5
FB
330
1F
100
AcDbEntity
  8
Layer 1
 62
   250
420
  2301728
370
    35
100
AcDbSpline
210
0.0
220
0.0
230
1.0
 70
     8
 71
     3
 72
    53
 73
    49
 74
     0
 42
0.0000000001
 43
0.0000000001
 12
1.0
 22
0.0
 32
0.0
 13
1.0
 23
0.0
 33
0.0
 40
0.0
 40
0.0
 40
0.0
 40
0.0
 40
1.0
 40
1.0
 40
1.0
 40
2.0
 40
2.0
 40
2.0
 40
3.0
 40
3.0
 40
3.0
 40
4.0
 40
4.0
 40
4.0
 40
5.0
 40
5.0
 40
5.0
 40
6.0
 40
6.0
 40
6.0
 40
7.0
 40
7.0
 40
7.0
 40
8.0
 40
8.0
 40
8.0
 40
9.0
 40
9.0
 40
9.0
 40
10.0
 40
10.0
 40
10.0
 40
11.0
 40
11.0
 40
11.0
 40
12.0
 40
12.0
 40
12.0
 40
13.0
 40
13.0
 40
13.0
 40
14.0
 40
14.0
 40
14.0
 40
15.0
 40
15.0
 40
15.0
 40
16.0
 40
16.0
 40
16.0
 40
16.0
 10
698.2397391829152
 20
-158.5432359563484
 30
0.0
 10
731.9768702508698
 20
-158.4534050915725
 30
0.0
 10
760.7540973487103
 20
-133.5722364780001
 30
0.0
 10
770.780444866818
 20
-120.9608615625332
 30
0.0
 10
771.966246732841
 20
-119.4694797269685
 30
0.0
 10
776.1325729579279
 20
-120.330753598281
 30
0.0
 10
776.1089740538539
 20
-122.2358914016241
 30
0.0
 10
776.1089740538539
 20
-122.2358914016241
 30
0.0
 10
776.1219792893127
 20
-122.2358914016241
 30
0.0
 10
776.1219792893127
 20
-122.2358914016241
 30
0.0
 10
776.1219792893127
 20
-202.8928975392299
 30
0.0
 10
710.6754572923254
 20
-207.6145731565391
 30
0.0
 10
710.6408340826987
 20
-207.617070850764
 30
0.0
 10
710.6408340826987
 20
-207.617070850764
 30
0.0
 10
710.64096327378
 20
-207.617070850764
 30
0.0
 10
710.64096327378
 20
-207.617070850764
 30
0.0
 10
710.64096327378
 20
-207.617070850764
 30
0.0
 10
710.6404465094572
 20
-207.617070850764
 30
0.0
 10
710.6404465094572
 20
-207.617070850764
 30
0.0
 10
710.6404465094572
 20
-207.617070850764
 30
0.0
 10
710.6413508470214
 20
-207.617070850764
 30
0.0
 10
710.6413508470214
 20
-207.617070850764
 30
0.0
 10
710.6787731967325
 20
-207.6162526405888
 30
0.0
 10
729.2908584920987
 20
-207.2094299274737
 30
0.0
 10
754.7252663769082
 20
-205.0175309886764
 30
0.0
 10
754.7252663769082
 20
-205.0175309886764
 30
0.0
 10
754.7252579133426
 20
-205.0261359372197
 30
0.0
 10
754.7252579133426
 20
-205.0261359372197
 30
0.0
 10
754.7252579133426
 20
-205.0261359372197
 30
0.0
 10
755.1224027059367
 20
-199.2903098395296
 30
0.0
 10
755.1224027059367
 20
-199.2903098395296
 30
0.0
 10
755.173266186493
 20
-198.2990996692722
 30
0.0
 10
755.9383151538723
 20
-197.7790168415586
 30
0.0
 10
756.931568706201
 20
-197.4017839171275
 30
0.0
 10
756.931568706201
 20
-197.4017839171275
 30
0.0
 10
761.0358495385634
 20
-196.4561294117127
 30
0.0
 10
761.0358495385634
 20
-196.4561294117127
 30
0.0
 10
761.7517826741358
 20
-196.291173497904
 30
0.0
 10
762.5033578305752
 20
-196.3946669190689
 30
0.0
 10
763.1480612560086
 20
-196.7469852429497
 30
0.0
 10
763.1480612560086
 20
-196.7469852429497
 30
0.0
 10
770.0189908170498
 20
-200.5018193123132
 30
0.0
 10
770.0189908170498
 20
-200.5018193123132
 30
0.0
 10
770.6018244894569
 20
-200.8203269771777
 30
0.0
 10
770.9885167130992
 20
-201.4073981022507
 30
0.0
 10
771.0510220791726
 20
-202.0686358064713
 30
0.0
 10
771.0510220791726
 20
-202.0686358064713
 30
0.0
 10
771.1835251267015
 20
-203.4703716326179
 30
0.0
 10
771.1835251267015
 20
-203.4703716326179
 30
0.0
  0
SPLINE
  5
FC
330
1F
100
AcDbEntity
  8
Layer 1
 62
   250
420
  2301728
370
    35
100
AcDbSpline
210
0.0
220
0.0
230
1.0
 70
     8
 71
     3
 72
    20
 73
    16
 74
     0
 42
0.0000000001
 43
0.0000000001
 12
1.0
 22
0.0
 32
0.0
 13
1.0
 23
0.0
 33
0.0
 40
0.0
 40
0.0
 40
0.0
 40
0.0
 40
1.0
 40
1.0
 40
1.0
 40
2.0
 40
2.0
 40
2.0
 40
3.0
 40
3.0
 40
3.0
 40
4.0
 40
4.0
 40
4.0
 40
5.0
 40
5.0
 40
5.0
 40
5.0
 10
698.1647039181761
 20
-454.5050156675136
 30
0.0
 10
698.1647039181761
 20
-454.5050156675136
 30
0.0
 10
734.3084925647372
 20
-454.5050156675136
 30
0.0
 10
734.3084925647372
 20
-454.5050156675136
 30
0.0
 10
801.1069130938295
 20
-454.5050156675136
 30
0.0
 10
849.0628521416259
 20
-396.9600354844172
 30
0.0
 10
849.0628521416259
 20
-326.8198723346371
 30
0.0
 10
849.0628521416259
 20
-326.8198723346371
 30
0.0
 10
849.2159866359452
 20
-195.2029276518295
 30
0.0
 10
849.2159866359452
 20
-195.2029276518295
 30
0.0
 10
849.2198623683681
 20
-191.8848700625963
 30
0.0
 10
846.0529583435522
 20
-189.4876864965743
 30
0.0
 10
842.8590103191771
 20
-190.3864257812869
 30
0.0
 10
833.9225187578242
 20
-192.9010009759708
 30
0.0
 10
825.8566943783314
 20
-195.0510850683152
 30
0.0
 10
816.1031984226548
 20
-196.8907660574386
 30
0.0
  0
SPLINE
  5
FD
330
1F
100
AcDbEntity
  8
Layer 1
 62
   250
420
  2301728
370
    35
100
AcDbSpline
210
0.0
220
0.0
230
1.0
 70
     8
 71
     3
 72
    35
 73
    31
 74
     0
 42
0.0000000001
 43
0.0000000001
 12
1.0
 22
0.0
 32
0.0
 13
1.0
 23
0.0
 33
0.0
 40
0.0
 40
0.0
 40
0.0
 40
0.0
 40
1.0
 40
1.0
 40
1.0
 40
2.0
 40
2.0
 40
2.0
 40
3.0
 40
3.0
 40
3.0
 40
4.0
 40
4.0
 40
4.0
 40
5.0
 40
5.0
 40
5.0
 40
6.0
 40
6.0
 40
6.0
 40
7.0
 40
7.0
 40
7.0
 40
8.0
 40
8.0
 40
8.0
 40
9.0
 40
9.0
 40
9.0
 40
10.0
 40
10.0
 40
10.0
 40
10.0
 10
763.1384479340517
 20
-204.2289055684098
 30
0.0
 10
777.2048158640197
 20
-202.8704182911868
 30
0.0
 10
792.8169550745264
 20
-200.9762186660112
 30
0.0
 10
808.2647632303866
 20
-198.3486012757182
 30
0.0
 10
808.2647632303866
 20
-198.3486012757182
 30
0.0
 10
808.2813431336941
 20
-198.4118157607372
 30
0.0
 10
808.2813431336941
 20
-198.4118157607372
 30
0.0
 10
808.2813431336941
 20
-198.4118157607372
 30
0.0
 10
808.2821445048863
 20
-198.4203833167061
 30
0.0
 10
808.2821445048863
 20
-198.4203833167061
 30
0.0
 10
808.2821445048863
 20
-198.4203833167061
 30
0.0
 10
808.1377378353006
 20
-192.6726383916944
 30
0.0
 10
808.1377378353006
 20
-192.6726383916944
 30
0.0
 10
808.0950944646709
 20
-191.6810405708947
 30
0.0
 10
808.8078039999513
 20
-191.0912684212526
 30
0.0
 10
809.7611487036083
 20
-190.6222362533906
 30
0.0
 10
809.7611487036083
 20
-190.6222362533906
 30
0.0
 10
813.7582206418763
 20
-189.2945316496333
 30
0.0
 10
813.7582206418763
 20
-189.2945316496333
 30
0.0
 10
814.4554527180319
 20
-189.0629325561742
 30
0.0
 10
815.2134319486286
 20
-189.0952371995689
 30
0.0
 10
815.8884302406512
 20
-189.3853199703021
 30
0.0
 10
815.8884302406512
 20
-189.3853199703021
 30
0.0
 10
823.0822274741412
 20
-192.476878361256
 30
0.0
 10
823.0822274741412
 20
-192.476878361256
 30
0.0
 10
823.6924487291985
 20
-192.7391229839754
 30
0.0
 10
824.1326730724442
 20
-193.2871977136782
 30
0.0
 10
824.2571290025321
 20
-193.9396185469845
 30
0.0
 10
824.2571290025321
 20
-193.9396185469845
 30
0.0
 10
824.5209589911567
 20
-195.3226637816045
 30
0.0
 10
824.5209589911567
 20
-195.3226637816045
 30
0.0
  0
POLYLINE
  5
FE
330
1F
100
AcDbEntity
  8
Layer 1
 62
   250
420
  2301728
370
    35
100
AcDb2dPolyline
 66
     1
 10
0.0
 20
0.0
 30
0.0
  0
VERTEX
  5
FF
330
FE
100
AcDbEntity
  8
Layer 1
 62
   250
420
  2301728
370
    35
100
AcDbVertex
100
AcDb2dVertex
 10
710.641349339662
 20
-209.8170708502135
 30
0.0
  0
VERTEX
  5
100
330
FE
100
AcDbEntity
  8
Layer 1
 62
   250
420
  2301728
370
    35
100
AcDbVertex
100
AcDb2dVertex
 10
710.6413523543879
 20
-207.617070850764
 30
0.0
  0
SEQEND
  5
101
330
FE
100
AcDbEntity
  8
Layer 1
 62
   250
420
  2301728
370
    35
  0
POLYLINE
  5
102
330
1F
100
AcDbEntity
  8
Layer 1
 62
   250
420
  2301728
370
    35
100
AcDb2dPolyline
 66
     1
 10
0.0
 20
0.0
 30
0.0
  0
VERTEX
  5
103
330
102
100
AcDbEntity
  8
Layer 1
 62
   250
420
  2301728
370
    35
100
AcDbVertex
100
AcDb2dVertex
 10
572.8468494304193
 20
-240.2919513966382
 30
0.0
  0
VERTEX
  5
104
330
102
100
AcDbEntity
  8
Layer 1
 62
   250
420
  2301728
370
    35
100
AcDbVertex
100
AcDb2dVertex
 10
571.9866190699174
 20
-254.7850772062531
 30
0.0
  0
SEQEND
  5
105
330
102
100
AcDbEntity
  8
Layer 1
 62
   250
420
  2301728
370
    35
  0
POLYLINE
  5
106
330
1F
100
AcDbEntity
  8
Layer 1
 62
   250
420
  2301728
370
    35
100
AcDb2dPolyline
 66
     1
 10
0.0
 20
0.0
 30
0.0
  0
VERTEX
  5
107
330
106
100
AcDbEntity
  8
Layer 1
 62
   250
420
  2301728
370
    35
100
AcDbVertex
100
AcDb2dVertex
 10
588.6395901944354
 20
-235.5216119319815
 30
0.0
  0
VERTEX
  5
108
330
106
100
AcDbEntity
  8
Layer 1
 62
   250
420
  2301728
370
    35
100
AcDbVertex
100
AcDb2dVertex
 10
586.959562669016
 20
-262.2409287538756
 30
0.0
  0
SEQEND
  5
109
330
106
100
AcDbEntity
  8
Layer 1
 62
   250
420
  2301728
370
    35
  0
SPLINE
  5
10A
330
1F
100
AcDbEntity
  8
Layer 1
 62
   250
420
  2301728
370
    35
100
AcDbSpline
210
0.0
220
0.0
230
1.0
 70
     8
 71
     3
 72
    53
 73
    49
 74
     0
 42
0.0000000001
 43
0.0000000001
 12
1.0
 22
0.0
 32
0.0
 13
1.0
 23
0.0
 33
0.0
 40
0.0
 40
0.0
 40
0.0
 40
0.0
 40
1.0
 40
1.0
 40
1.0
 40
2.0
 40
2.0
 40
2.0
 40
3.0
 40
3.0
 40
3.0
 40
4.0
 40
4.0
 40
4.0
 40
5.0
 40
5.0
 40
5.0
 40
6.0
 40
6.0
 40
6.0
 40
7.0
 40
7.0
 40
7.0
 40
8.0
 40
8.0
 40
8.0
 40
9.0
 40
9.0
 40
9.0
 40
10.0
 40
10.0
 40
10.0
 40
11.0
 40
11.0
 40
11.0
 40
12.0
 40
12.0
 40
12.0
 40
13.0
 40
13.0
 40
13.0
 40
14.0
 40
14.0
 40
14.0
 40
15.0
 40
15.0
 40
15.0
 40
16.0
 40
16.0
 40
16.0
 40
16.0
 10
697.6902680791495
 20
-158.5432359597809
 30
0.0
 10
663.9531370111981
 20
-158.4534050934883
 30
0.0
 10
635.1759099144762
 20
-133.5722364786232
 30
0.0
 10
625.1495623969324
 20
-120.9608615627061
 30
0.0
 10
623.9637605309767
 20
-119.4694797270882
 30
0.0
 10
619.7974343058507
 20
-120.3307535982136
 30
0.0
 10
619.8210332098367
 20
-122.2358914015577
 30
0.0
 10
619.8210332098367
 20
-122.2358914015577
 30
0.0
 10
619.8080279743818
 20
-122.2358914015574
 30
0.0
 10
619.8080279743818
 20
-122.2358914015574
 30
0.0
 10
619.808027970762
 20
-202.8928975391626
 30
0.0
 10
685.2545499675344
 20
-207.6145731594107
 30
0.0
 10
685.2891731771612
 20
-207.6170708536391
 30
0.0
 10
685.2891731771612
 20
-207.6170708536391
 30
0.0
 10
685.2890439860798
 20
-207.6170708536391
 30
0.0
 10
685.2890439860798
 20
-207.6170708536391
 30
0.0
 10
685.2890439860798
 20
-207.6170708536391
 30
0.0
 10
685.2895607504026
 20
-207.6170708536391
 30
0.0
 10
685.2895607504026
 20
-207.6170708536391
 30
0.0
 10
685.2895607504026
 20
-207.6170708536391
 30
0.0
 10
685.2886564128383
 20
-207.6170708536391
 30
0.0
 10
685.2886564128383
 20
-207.6170708536391
 30
0.0
 10
685.2512340631273
 20
-207.6162526434569
 30
0.0
 10
666.6391487677791
 20
-207.2094299295092
 30
0.0
 10
641.2047408830678
 20
-205.0175309895684
 30
0.0
 10
641.2047408830678
 20
-205.0175309895684
 30
0.0
 10
641.2047493466333
 20
-205.0261359381123
 30
0.0
 10
641.2047493466333
 20
-205.0261359381123
 30
0.0
 10
641.2047493466333
 20
-205.0261359381123
 30
0.0
 10
640.8076045543005
 20
-199.2903098404045
 30
0.0
 10
640.8076045543005
 20
-199.2903098404045
 30
0.0
 10
640.7567410737832
 20
-198.2990996701472
 30
0.0
 10
639.9916921064284
 20
-197.7790168423982
 30
0.0
 10
638.9984385541176
 20
-197.4017839179213
 30
0.0
 10
638.9984385541176
 20
-197.4017839179213
 30
0.0
 10
634.8941577217976
 20
-196.4561294123229
 30
0.0
 10
634.8941577217976
 20
-196.4561294123229
 30
0.0
 10
634.1782245862355
 20
-196.2911734984822
 30
0.0
 10
633.426649429789
 20
-196.3946669196127
 30
0.0
 10
632.7819460043414
 20
-196.7469852434682
 30
0.0
 10
632.7819460043414
 20
-196.7469852434682
 30
0.0
 10
625.9110164431307
 20
-200.5018193125215
 30
0.0
 10
625.9110164431307
 20
-200.5018193125215
 30
0.0
 10
625.3281827707095
 20
-200.8203269773577
 30
0.0
 10
624.941490547039
 20
-201.4073981024166
 30
0.0
 10
624.8789851809381
 20
-202.0686358066301
 30
0.0
 10
624.8789851809381
 20
-202.0686358066301
 30
0.0
 10
624.7464821333456
 20
-203.4703716327732
 30
0.0
 10
624.7464821333456
 20
-203.4703716327732
 30
0.0
  0
SPLINE
  5
10B
330
1F
100
AcDbEntity
  8
Layer 1
 62
   250
420
  2301728
370
    35
100
AcDbSpline
210
0.0
220
0.0
230
1.0
 70
     8
 71
     3
 72
    20
 73
    16
 74
     0
 42
0.0000000001
 43
0.0000000001
 12
1.0
 22
0.0
 32
0.0
 13
1.0
 23
0.0
 33
0.0
 40
0.0
 40
0.0
 40
0.0
 40
0.0
 40
1.0
 40
1.0
 40
1.0
 40
2.0
 40
2.0
 40
2.0
 40
3.0
 40
3.0
 40
3.0
 40
4.0
 40
4.0
 40
4.0
 40
5.0
 40
5.0
 40
5.0
 40
5.0
 10
697.7653033305996
 20
-454.5050156709358
 30
0.0
 10
697.7653033305996
 20
-454.5050156709358
 30
0.0
 10
661.321514684112
 20
-454.5050156693129
 30
0.0
 10
661.321514684112
 20
-454.5050156693129
 30
0.0
 10
594.5230941550203
 20
-454.5050156663143
 30
0.0
 10
546.5671551098061
 20
-396.9600354809954
 30
0.0
 10
546.5671551129562
 20
-326.8198723312149
 30
0.0
 10
546.5671551129562
 20
-326.8198723312149
 30
0.0
 10
546.4140206245463
 20
-195.2029276484003
 30
0.0
 10
546.4140206245463
 20
-195.2029276484003
 30
0.0
 10
546.4101448922717
 20
-191.8848700591678
 30
0.0
 10
549.5770489171966
 20
-189.4876864932862
 30
0.0
 10
552.7709969415333
 20
-190.3864257781436
 30
0.0
 10
561.7074885027694
 20
-192.9010009732301
 30
0.0
 10
569.7733128821671
 20
-195.0510850660044
 30
0.0
 10
579.5268088377622
 20
-196.8907660555655
 30
0.0
  0
SPLINE
  5
10C
330
1F
100
AcDbEntity
  8
Layer 1
 62
   250
420
  2301728
370
    35
100
AcDbSpline
210
0.0
220
0.0
230
1.0
 70
     8
 71
     3
 72
    35
 73
    31
 74
     0
 42
0.0000000001
 43
0.0000000001
 12
1.0
 22
0.0
 32
0.0
 13
1.0
 23
0.0
 33
0.0
 40
0.0
 40
0.0
 40
0.0
 40
0.0
 40
1.0
 40
1.0
 40
1.0
 40
2.0
 40
2.0
 40
2.0
 40
3.0
 40
3.0
 40
3.0
 40
4.0
 40
4.0
 40
4.0
 40
5.0
 40
5.0
 40
5.0
 40
6.0
 40
6.0
 40
6.0
 40
7.0
 40
7.0
 40
7.0
 40
8.0
 40
8.0
 40
8.0
 40
9.0
 40
9.0
 40
9.0
 40
10.0
 40
10.0
 40
10.0
 40
10.0
 10
632.7915593259596
 20
-204.2289055689255
 30
0.0
 10
618.7251913960557
 20
-202.8704182910738
 30
0.0
 10
603.1130521856338
 20
-200.9762186651924
 30
0.0
 10
587.6652440298897
 20
-198.3486012742083
 30
0.0
 10
587.6652440298897
 20
-198.3486012742083
 30
0.0
 10
587.6486641265783
 20
-198.4118157592272
 30
0.0
 10
587.6486641265783
 20
-198.4118157592272
 30
0.0
 10
587.6486641265783
 20
-198.4118157592272
 30
0.0
 10
587.64786275539
 20
-198.4203833151961
 30
0.0
 10
587.64786275539
 20
-198.4203833151961
 30
0.0
 10
587.64786275539
 20
-198.4203833151961
 30
0.0
 10
587.7922694252297
 20
-192.6726383901877
 30
0.0
 10
587.7922694252297
 20
-192.6726383901877
 30
0.0
 10
587.8349127959051
 20
-191.6810405693918
 30
0.0
 10
587.1222032606529
 20
-191.0912684197179
 30
0.0
 10
586.1688585570131
 20
-190.6222362518108
 30
0.0
 10
586.1688585570131
 20
-190.6222362518108
 30
0.0
 10
582.1717866188088
 20
-189.2945316478767
 30
0.0
 10
582.1717866188088
 20
-189.2945316478767
 30
0.0
 10
581.4745545426633
 20
-189.0629325543858
 30
0.0
 10
580.7165753120635
 20
-189.0952371977487
 30
0.0
 10
580.0415770200267
 20
-189.3853199684498
 30
0.0
 10
580.0415770200267
 20
-189.3853199684498
 30
0.0
 10
572.8477797863994
 20
-192.4768783590794
 30
0.0
 10
572.8477797863994
 20
-192.4768783590794
 30
0.0
 10
572.2375585313312
 20
-192.7391229817734
 30
0.0
 10
571.7973341880612
 20
-193.2871977114556
 30
0.0
 10
571.6728782579412
 20
-193.9396185447585
 30
0.0
 10
571.6728782579412
 20
-193.9396185447585
 30
0.0
 10
571.4090482692536
 20
-195.3226637793644
 30
0.0
 10
571.4090482692536
 20
-195.3226637793644
 30
0.0
  0
POLYLINE
  5
10D
330
1F
100
AcDbEntity
  8
Layer 1
 62
   250
420
  2301728
370
    35
100
AcDb2dPolyline
 66
     1
 10
0.0
 20
0.0
 30
0.0
  0
VERTEX
  5
10E
330
10D
100
AcDbEntity
  8
Layer 1
 62
   250
420
  2301728
370
    35
100
AcDbVertex
100
AcDb2dVertex
 10
685.2886579200989
 20
-209.8170708530851
 30
0.0
  0
VERTEX
  5
10F
330
10D
100
AcDbEntity
  8
Layer 1
 62
   250
420
  2301728
370
    35
100
AcDbVertex
100
AcDb2dVertex
 10
685.288654905472
 20
-207.6170708536391
 30
0.0
  0
SEQEND
  5
110
330
10D
100
AcDbEntity
  8
Layer 1
 62
   250
420
  2301728
370
    35
  0
MTEXT
  5
111
330
1F
100
AcDbEntity
  8
Layer 1
 62
   250
420
  2301728
100
AcDbMText
 10
182.236518559991
 20
-56.96259991228405
 30
0.0
 40
8.948730424551147
 41
0.0
 46
0.0
 71
     7
 72
     1
  1
\fMyriad Pro|b0|i0|c0|p34;\W1;Use .005-0.01 PET (mylar/duralar) film
 73
     1
 44
1.0
  0
ENDSEC
  0
SECTION
  2
OBJECTS
  0
DICTIONARY
  5
C
330
0
100
AcDbDictionary
281
     1
  3
ACAD_GROUP
350
D
  3
ACAD_LAYOUT
350
1A
  3
ACAD_MATERIAL
350
3B
  3
ACAD_MLEADERSTYLE
350
113
  3
ACAD_MLINESTYLE
350
17
  3
ACAD_PLOTSETTINGS
350
19
  3
ACAD_PLOTSTYLENAME
350
E
  3
ACAD_TABLESTYLE
350
112
  3
ACAD_VISUALSTYLE
350
2A
  0
SUN
  5
3F
330
29
100
AcDbSun
 90
        1
290
     0
 63
     7
421
 16777215
 40
1.0
291
     1
 91
  2455826
 92
 54000000
292
     0
 70
     2
 71
   256
280
     1
  0
DICTIONARY
  5
D
102
{ACAD_REACTORS
330
C
102
}
330
C
100
AcDbDictionary
281
     1
  0
DICTIONARY
  5
1A
102
{ACAD_REACTORS
330
C
102
}
330
C
100
AcDbDictionary
281
     1
  3
Layout1
350
1E
  3
Layout2
350
26
  3
Model
350
22
  0
DICTIONARY
  5
3B
102
{ACAD_REACTORS
330
C
102
}
330
C
100
AcDbDictionary
281
     1
  3
ByBlock
350
3D
  3
ByLayer
350
3C
  3
Global
350
3E
  0
DICTIONARY
  5
113
102
{ACAD_REACTORS
330
C
102
}
330
C
100
AcDbDictionary
281
     1
  0
DICTIONARY
  5
17
102
{ACAD_REACTORS
330
C
102
}
330
C
100
AcDbDictionary
281
     1
  3
Standard
350
18
  0
DICTIONARY
  5
19
102
{ACAD_REACTORS
330
C
102
}
330
C
100
AcDbDictionary
281
     1
  0
ACDBDICTIONARYWDFLT
  5
E
102
{ACAD_REACTORS
330
C
102
}
330
C
100
AcDbDictionary
281
     1
  3
Normal
350
F
100
AcDbDictionaryWithDefault
340
F
  0
DICTIONARY
  5
112
102
{ACAD_REACTORS
330
C
102
}
330
C
100
AcDbDictionary
281
     1
  0
DICTIONARY
  5
2A
102
{ACAD_REACTORS
330
C
102
}
330
C
100
AcDbDictionary
281
     1
  3
2dWireframe
350
2F
  3
3D Hidden
350
31
  3
3dWireframe
350
30
  3
Basic
350
32
  3
Brighten
350
36
  3
ColorChange
350
3A
  3
Conceptual
350
34
  3
Dim
350
35
  3
Facepattern
350
39
  3
Flat
350
2B
  3
FlatWithEdges
350
2C
  3
Gouraud
350
2D
  3
GouraudWithEdges
350
2E
  3
Linepattern
350
38
  3
Realistic
350
33
  3
Thicken
350
37
  0
LAYOUT
  5
1E
102
{ACAD_REACTORS
330
1A
102
}
330
1A
100
AcDbPlotSettings
  1

  2
none_device
  4

  6

 40
0.0
 41
0.0
 42
0.0
 43
0.0
 44
0.0
 45
0.0
 46
0.0
 47
0.0
 48
0.0
 49
0.0
140
0.0
141
0.0
142
1.0
143
1.0
 70
   688
 72
     0
 73
     0
 74
     5
  7

 75
    16
 76
     0
 77
     2
 78
   300
147
1.0
148
0.0
149
0.0
100
AcDbLayout
  1
Layout1
 70
     1
 71
     1
 10
0.0
 20
0.0
 11
12.0
 21
9.0
 12
0.0
 22
0.0
 32
0.0
 14
1.000000000000000E+20
 24
1.000000000000000E+20
 34
1.000000000000000E+20
 15
-1.000000000000000E+20
 25
-1.000000000000000E+20
 35
-1.000000000000000E+20
146
0.0
 13
0.0
 23
0.0
 33
0.0
 16
1.0
 26
0.0
 36
0.0
 17
0.0
 27
1.0
 37
0.0
 76
     0
330
1B
  0
LAYOUT
  5
26
102
{ACAD_REACTORS
330
1A
102
}
330
1A
100
AcDbPlotSettings
  1

  2
none_device
  4

  6

 40
0.0
 41
0.0
 42
0.0
 43
0.0
 44
0.0
 45
0.0
 46
0.0
 47
0.0
 48
0.0
 49
0.0
140
0.0
141
0.0
142
1.0
143
1.0
 70
   688
 72
     0
 73
     0
 74
     5
  7

 75
    16
 76
     0
 77
     2
 78
   300
147
1.0
148
0.0
149
0.0
100
AcDbLayout
  1
Layout2
 70
     1
 71
     2
 10
0.0
 20
0.0
 11
0.0
 21
0.0
 12
0.0
 22
0.0
 32
0.0
 14
0.0
 24
0.0
 34
0.0
 15
0.0
 25
0.0
 35
0.0
146
0.0
 13
0.0
 23
0.0
 33
0.0
 16
1.0
 26
0.0
 36
0.0
 17
0.0
 27
1.0
 37
0.0
 76
     0
330
23
  0
LAYOUT
  5
22
102
{ACAD_REACTORS
330
1A
102
}
330
1A
100
AcDbPlotSettings
  1

  2
none_device
  4

  6

 40
0.0
 41
0.0
 42
0.0
 43
0.0
 44
0.0
 45
0.0
 46
0.0
 47
0.0
 48
0.0
 49
0.0
140
0.0
141
0.0
142
1.0
143
1.0
 70
  1712
 72
     0
 73
     0
 74
     0
  7

 75
     0
 76
     0
 77
     2
 78
   300
147
1.0
148
0.0
149
0.0
100
AcDbLayout
  1
Model
 70
     1
 71
     0
 10
0.0
 20
0.0
 11
12.0
 21
9.0
 12
0.0
 22
0.0
 32
0.0
 14
1.000000000000000E+20
 24
1.000000000000000E+20
 34
1.000000000000000E+20
 15
-1.000000000000000E+20
 25
-1.000000000000000E+20
 35
-1.000000000000000E+20
146
0.0
 13
0.0
 23
0.0
 33
0.0
 16
1.0
 26
0.0
 36
0.0
 17
0.0
 27
1.0
 37
0.0
 76
     0
330
1F
331
29
  0
MATERIAL
  5
3D
102
{ACAD_REACTORS
330
3B
102
}
330
3B
100
AcDbMaterial
  1
ByBlock
 72
     1
 94
      127
  0
MATERIAL
  5
3C
102
{ACAD_REACTORS
330
3B
102
}
330
3B
100
AcDbMaterial
  1
ByLayer
 72
     1
 94
      127
  0
MATERIAL
  5
3E
102
{ACAD_REACTORS
330
3B
102
}
330
3B
100
AcDbMaterial
  1
Global
 72
     1
 94
      127
  0
MLINESTYLE
  5
18
102
{ACAD_REACTORS
330
17
102
}
330
17
100
AcDbMlineStyle
  2
Standard
 70
     0
  3

 62
   256
 51
90.0
 52
90.0
 71
     2
 49
0.5
 62
   256
  6
BYLAYER
 49
-0.5
 62
   256
  6
BYLAYER
  0
ACDBPLACEHOLDER
  5
F
102
{ACAD_REACTORS
330
E
102
}
330
E
  0
VISUALSTYLE
  5
2F
102
{ACAD_REACTORS
330
2A
102
}
330
2A
100
AcDbVisualStyle
  2
2dWireframe
 70
     4
177
     2
291
     0
 71
     0
176
     1
 72
     2
176
     1
 73
     0
176
     1
 90
        0
176
     1
 40
-0.6
176
     1
 41
-30.0
176
     1
 62
     5
 63
     7
421
 16777215
176
     1
 74
     1
176
     1
 91
        4
176
     1
 64
     7
176
     1
 65
   257
176
     1
 75
     1
176
     1
175
     1
176
     1
 42
1.0
176
     1
 92
        0
176
     1
 66
   257
176
     1
 43
1.0
176
     1
 76
     1
176
     1
 77
     6
176
     1
 78
     2
176
     1
 67
     7
176
     1
 79
     5
176
     1
170
     0
176
     1
171
     0
176
     1
290
     0
176
     1
 93
        1
176
     1
 44
0.0
176
     1
173
     0
176
     1
  0
VISUALSTYLE
  5
31
102
{ACAD_REACTORS
330
2A
102
}
330
2A
100
AcDbVisualStyle
  2
3D Hidden
 70
     6
177
     2
291
     0
 71
     1
176
     1
 72
     2
176
     1
 73
     2
176
     1
 90
        0
176
     1
 40
-0.6
176
     1
 41
-30.0
176
     1
 62
     5
 63
     7
421
 16777215
176
     1
 74
     2
176
     1
 91
        2
176
     1
 64
     7
176
     1
 65
   257
176
     1
 75
     2
176
     1
175
     1
176
     1
 42
40.0
176
     1
 92
        0
176
     1
 66
   257
176
     1
 43
1.0
176
     1
 76
     1
176
     1
 77
     6
176
     1
 78
     2
176
     1
 67
     7
176
     1
 79
     3
176
     1
170
     0
176
     1
171
     0
176
     1
290
     0
176
     1
 93
        1
176
     1
 44
0.0
176
     1
173
     0
176
     1
  0
VISUALSTYLE
  5
30
102
{ACAD_REACTORS
330
2A
102
}
330
2A
100
AcDbVisualStyle
  2
3dWireframe
 70
     5
177
     2
291
     0
 71
     0
176
     1
 72
     2
176
     1
 73
     0
176
     1
 90
        0
176
     1
 40
-0.6
176
     1
 41
-30.0
176
     1
 62
     5
 63
     7
421
 16777215
176
     1
 74
     1
176
     1
 91
        4
176
     1
 64
     7
176
     1
 65
   257
176
     1
 75
     1
176
     1
175
     1
176
     1
 42
1.0
176
     1
 92
        0
176
     1
 66
   257
176
     1
 43
1.0
176
     1
 76
     1
176
     1
 77
     6
176
     1
 78
     2
176
     1
 67
     7
176
     1
 79
     5
176
     1
170
     0
176
     1
171
     0
176
     1
290
     0
176
     1
 93
        1
176
     1
 44
0.0
176
     1
173
     0
176
     1
  0
VISUALSTYLE
  5
32
102
{ACAD_REACTORS
330
2A
102
}
330
2A
100
AcDbVisualStyle
  2
Basic
 70
     7
177
     2
291
     1
 71
     1
176
     1
 72
     0
176
     1
 73
     1
176
     1
 90
        0
176
     1
 40
-0.6
176
     1
 41
-30.0
176
     1
 62
     5
 63
     7
421
 16777215
176
     1
 74
     0
176
     1
 91
        4
176
     1
 64
     7
176
     1
 65
   257
176
     1
 75
     1
176
     1
175
     1
176
     1
 42
1.0
176
     1
 92
        8
176
     1
 66
     7
176
     1
 43
1.0
176
     1
 76
     1
176
     1
 77
     6
176
     1
 78
     2
176
     1
 67
     7
176
     1
 79
     5
176
     1
170
     0
176
     1
171
     0
176
     1
290
     0
176
     1
 93
        1
176
     1
 44
0.0
176
     1
173
     0
176
     1
  0
VISUALSTYLE
  5
36
102
{ACAD_REACTORS
330
2A
102
}
330
2A
100
AcDbVisualStyle
  2
Brighten
 70
    12
177
     2
291
     1
 71
     2
176
     1
 72
     2
176
     1
 73
     0
176
     1
 90
        0
176
     1
 40
-0.6
176
     1
 41
-30.0
176
     1
 62
     5
 63
     7
421
 16777215
176
     1
 74
     1
176
     1
 91
        4
176
     1
 64
     7
176
     1
 65
   257
176
     1
 75
     1
176
     1
175
     1
176
     1
 42
1.0
176
     1
 92
        8
176
     1
 66
     7
176
     1
 43
1.0
176
     1
 76
     1
176
     1
 77
     6
176
     1
 78
     2
176
     1
 67
     7
176
     1
 79
     5
176
     1
170
     0
176
     1
171
     0
176
     1
290
     0
176
     1
 93
        1
176
     1
 44
50.0
176
     1
173
     0
176
     1
  0
VISUALSTYLE
  5
3A
102
{ACAD_REACTORS
330
2A
102
}
330
2A
100
AcDbVisualStyle
  2
ColorChange
 70
    16
177
     2
291
     1
 71
     2
176
     1
 72
     2
176
     1
 73
     3
176
     1
 90
        0
176
     1
 40
-0.6
176
     1
 41
-30.0
176
     1
 62
     5
 63
     8
421
  8421504
176
     1
 74
     1
176
     1
 91
        4
176
     1
 64
     7
176
     1
 65
   257
176
     1
 75
     1
176
     1
175
     1
176
     1
 42
1.0
176
     1
 92
        8
176
     1
 66
     8
424
  8421504
176
     1
 43
1.0
176
     1
 76
     1
176
     1
 77
     6
176
     1
 78
     2
176
     1
 67
     7
176
     1
 79
     5
176
     1
170
     0
176
     1
171
     0
176
     1
290
     0
176
     1
 93
        1
176
     1
 44
0.0
176
     1
173
     0
176
     1
  0
VISUALSTYLE
  5
34
102
{ACAD_REACTORS
330
2A
102
}
330
2A
100
AcDbVisualStyle
  2
Conceptual
 70
     9
177
     2
291
     0
 71
     3
176
     1
 72
     2
176
     1
 73
     0
176
     1
 90
        0
176
     1
 40
-0.6
176
     1
 41
-30.0
176
     1
 62
     5
 63
     7
421
 16777215
176
     1
 74
     2
176
     1
 91
        2
176
     1
 64
     7
176
     1
 65
   257
176
     1
 75
     1
176
     1
175
     1
176
     1
 42
40.0
176
     1
 92
        8
176
     1
 66
     7
176
     1
 43
1.0
176
     1
 76
     1
176
     1
 77
     6
176
     1
 78
     2
176
     1
 67
     7
176
     1
 79
     3
176
     1
170
     0
176
     1
171
     0
176
     1
290
     0
176
     1
 93
        1
176
     1
 44
0.0
176
     1
173
     0
176
     1
  0
VISUALSTYLE
  5
35
102
{ACAD_REACTORS
330
2A
102
}
330
2A
100
AcDbVisualStyle
  2
Dim
 70
    11
177
     2
291
     1
 71
     2
176
     1
 72
     2
176
     1
 73
     0
176
     1
 90
        0
176
     1
 40
-0.6
176
     1
 41
-30.0
176
     1
 62
     5
 63
     7
421
 16777215
176
     1
 74
     1
176
     1
 91
        4
176
     1
 64
     7
176
     1
 65
   257
176
     1
 75
     1
176
     1
175
     1
176
     1
 42
1.0
176
     1
 92
        8
176
     1
 66
     7
176
     1
 43
1.0
176
     1
 76
     1
176
     1
 77
     6
176
     1
 78
     2
176
     1
 67
     7
176
     1
 79
     5
176
     1
170
     0
176
     1
171
     0
176
     1
290
     0
176
     1
 93
        1
176
     1
 44
-50.0
176
     1
173
     0
176
     1
  0
VISUALSTYLE
  5
39
102
{ACAD_REACTORS
330
2A
102
}
330
2A
100
AcDbVisualStyle
  2
Facepattern
 70
    15
177
     2
291
     1
 71
     2
176
     1
 72
     2
176
     1
 73
     0
176
     1
 90
        0
176
     1
 40
-0.6
176
     1
 41
-30.0
176
     1
 62
     5
 63
     7
421
 16777215
176
     1
 74
     1
176
     1
 91
        4
176
     1
 64
     7
176
     1
 65
   257
176
     1
 75
     1
176
     1
175
     1
176
     1
 42
1.0
176
     1
 92
        8
176
     1
 66
     7
176
     1
 43
1.0
176
     1
 76
     1
176
     1
 77
     6
176
     1
 78
     2
176
     1
 67
     7
176
     1
 79
     5
176
     1
170
     0
176
     1
171
     0
176
     1
290
     0
176
     1
 93
        1
176
     1
 44
0.0
176
     1
173
     0
176
     1
  0
VISUALSTYLE
  5
2B
102
{ACAD_REACTORS
330
2A
102
}
330
2A
100
AcDbVisualStyle
  2
Flat
 70
     0
177
     2
291
     1
 71
     2
176
     1
 72
     1
176
     1
 73
     1
176
     1
 90
        2
176
     1
 40
-0.6
176
     1
 41
30.0
176
     1
 62
     5
 63
     7
421
 16777215
176
     1
 74
     0
176
     1
 91
        4
176
     1
 64
     7
176
     1
 65
   257
176
     1
 75
     1
176
     1
175
     1
176
     1
 42
1.0
176
     1
 92
        8
176
     1
 66
     7
176
     1
 43
1.0
176
     1
 76
     1
176
     1
 77
     6
176
     1
 78
     2
176
     1
 67
     7
176
     1
 79
     5
176
     1
170
     0
176
     1
171
     0
176
     1
290
     0
176
     1
 93
       13
176
     1
 44
0.0
176
     1
173
     0
176
     1
  0
VISUALSTYLE
  5
2C
102
{ACAD_REACTORS
330
2A
102
}
330
2A
100
AcDbVisualStyle
  2
FlatWithEdges
 70
     1
177
     2
291
     1
 71
     2
176
     1
 72
     1
176
     1
 73
     1
176
     1
 90
        2
176
     1
 40
-0.6
176
     1
 41
30.0
176
     1
 62
     5
 63
     7
421
 16777215
176
     1
 74
     1
176
     1
 91
        4
176
     1
 64
     7
176
     1
 65
   257
176
     1
 75
     1
176
     1
175
     1
176
     1
 42
1.0
176
     1
 92
        0
176
     1
 66
   257
176
     1
 43
1.0
176
     1
 76
     1
176
     1
 77
     6
176
     1
 78
     2
176
     1
 67
     7
176
     1
 79
     5
176
     1
170
     0
176
     1
171
     0
176
     1
290
     0
176
     1
 93
       13
176
     1
 44
0.0
176
     1
173
     0
176
     1
  0
VISUALSTYLE
  5
2D
102
{ACAD_REACTORS
330
2A
102
}
330
2A
100
AcDbVisualStyle
  2
Gouraud
 70
     2
177
     2
291
     1
 71
     2
176
     1
 72
     2
176
     1
 73
     1
176
     1
 90
        2
176
     1
 40
-0.6
176
     1
 41
30.0
176
     1
 62
     5
 63
     7
421
 16777215
176
     1
 74
     0
176
     1
 91
        4
176
     1
 64
     7
176
     1
 65
   257
176
     1
 75
     1
176
     1
175
     1
176
     1
 42
1.0
176
     1
 92
        0
176
     1
 66
     7
176
     1
 43
1.0
176
     1
 76
     1
176
     1
 77
     6
176
     1
 78
     2
176
     1
 67
     7
176
     1
 79
     5
176
     1
170
     0
176
     1
171
     0
176
     1
290
     0
176
     1
 93
       13
176
     1
 44
0.0
176
     1
173
     0
176
     1
  0
VISUALSTYLE
  5
2E
102
{ACAD_REACTORS
330
2A
102
}
330
2A
100
AcDbVisualStyle
  2
GouraudWithEdges
 70
     3
177
     2
291
     1
 71
     2
176
     1
 72
     2
176
     1
 73
     1
176
     1
 90
        2
176
     1
 40
-0.6
176
     1
 41
30.0
176
     1
 62
     5
 63
     7
421
 16777215
176
     1
 74
     1
176
     1
 91
        4
176
     1
 64
     7
176
     1
 65
   257
176
     1
 75
     1
176
     1
175
     1
176
     1
 42
1.0
176
     1
 92
        0
176
     1
 66
   257
176
     1
 43
1.0
176
     1
 76
     1
176
     1
 77
     6
176
     1
 78
     2
176
     1
 67
     7
176
     1
 79
     5
176
     1
170
     0
176
     1
171
     0
176
     1
290
     0
176
     1
 93
       13
176
     1
 44
0.0
176
     1
173
     0
176
     1
  0
VISUALSTYLE
  5
38
102
{ACAD_REACTORS
330
2A
102
}
330
2A
100
AcDbVisualStyle
  2
Linepattern
 70
    14
177
     2
291
     1
 71
     2
176
     1
 72
     2
176
     1
 73
     0
176
     1
 90
        0
176
     1
 40
-0.6
176
     1
 41
-30.0
176
     1
 62
     5
 63
     7
421
 16777215
176
     1
 74
     1
176
     1
 91
        4
176
     1
 64
     7
176
     1
 65
   257
176
     1
 75
     7
176
     1
175
     7
176
     1
 42
1.0
176
     1
 92
        8
176
     1
 66
     7
176
     1
 43
1.0
176
     1
 76
     1
176
     1
 77
     6
176
     1
 78
     2
176
     1
 67
     7
176
     1
 79
     5
176
     1
170
     0
176
     1
171
     0
176
     1
290
     0
176
     1
 93
        1
176
     1
 44
0.0
176
     1
173
     0
176
     1
  0
VISUALSTYLE
  5
33
102
{ACAD_REACTORS
330
2A
102
}
330
2A
100
AcDbVisualStyle
  2
Realistic
 70
     8
177
     2
291
     0
 71
     2
176
     1
 72
     2
176
     1
 73
     0
176
     1
 90
        0
176
     1
 40
-0.6
176
     1
 41
-30.0
176
     1
 62
     5
 63
     7
421
 16777215
176
     1
 74
     1
176
     1
 91
        0
176
     1
 64
     7
176
     1
 65
   257
176
     1
 75
     1
176
     1
175
     1
176
     1
 42
1.0
176
     1
 92
        8
176
     1
 66
     8
424
  7895160
176
     1
 43
1.0
176
     1
 76
     1
176
     1
 77
     6
176
     1
 78
     2
176
     1
 67
     7
176
     1
 79
     5
176
     1
170
     0
176
     1
171
     0
176
     1
290
     0
176
     1
 93
       13
176
     1
 44
0.0
176
     1
173
     0
176
     1
  0
VISUALSTYLE
  5
37
102
{ACAD_REACTORS
330
2A
102
}
330
2A
100
AcDbVisualStyle
  2
Thicken
 70
    13
177
     2
291
     1
 71
     2
176
     1
 72
     2
176
     1
 73
     0
176
     1
 90
        0
176
     1
 40
-0.6
176
     1
 41
-30.0
176
     1
 62
     5
 63
     7
421
 16777215
176
     1
 74
     1
176
     1
 91
        4
176
     1
 64
     7
176
     1
 65
   257
176
     1
 75
     1
176
     1
175
     1
176
     1
 42
1.0
176
     1
 92
       12
176
     1
 66
     7
176
     1
 43
1.0
176
     1
 76
     1
176
     1
 77
     6
176
     1
 78
     2
176
     1
 67
     7
176
     1
 79
     5
176
     1
170
     0
176
     1
171
     0
176
     1
290
     0
176
     1
 93
        1
176
     1
 44
0.0
176
     1
173
     0
176
     1
  0
ENDSEC
  0
EOF
